<?xml version="1.0" encoding="utf-8"?>
<!-- Generator: Adobe Illustrator 16.0.4, SVG Export Plug-In . SVG Version: 6.00 Build 0)  -->
<!DOCTYPE svg PUBLIC "-//W3C//DTD SVG 1.1//EN" "http://www.w3.org/Graphics/SVG/1.1/DTD/svg11.dtd">
<svg version="1.1" id="Capa_1" xmlns="http://www.w3.org/2000/svg" xmlns:xlink="http://www.w3.org/1999/xlink" x="0px" y="0px"
	 width="487.805px" height="487.804px" viewBox="0 0 487.805 487.804" enable-background="new 0 0 487.805 487.804"
	 xml:space="preserve">
<g>
	<g id="icons">
		<g>
			<path d="M202.602,82.606c22.812,0,41.301-18.493,41.301-41.3C243.902,18.493,225.414,0,202.602,0
				c-22.809,0-41.302,18.493-41.302,41.306C161.299,64.113,179.794,82.606,202.602,82.606z"/>
			<path d="M454.582,360.371l-53.555-46.035c-0.356-0.305-0.724-0.586-1.1-0.844c-13.039-10.174-29.252-14.941-45.778-13.441
				c-13.479,1.226-26.004,6.527-36.133,15.156l-56.85-48.863c1.502-2.416,2.671-5.213,3.379-8.391
				c13.132-58.943,31.14-134.713-25.521-156.99c-27.323-10.743-61.955-9.255-82.003,6.846
				c-15.971,12.824-23.501,18.832-42.246,32.706l-32.201-27.678c-1.189-3.675-2.433-7.261-3.776-10.551
				c-3.38-8.272-13.766-13.594-22.457-11.997L43.459,79.215c-1.538-1.324-3.858-1.149-5.183,0.388l-8.431,9.813
				c-1.324,1.54-1.147,3.859,0.39,5.182l11.406,9.805c-1.13,6.141-0.307,15.32,3.744,29.681c5.62,19.931,33.348,79.91,62.561,63.796
				c8.215-4.531,16.315-9.911,24.191-15.692l20.271,17.424c-0.312,67.47-1.336,210.294-3.606,265.406
				c-1.265,30.445,45.959,30.318,47.2,0c2.209-53.667,2.758-107.366,2.896-161.068c2.231,0.127,4.48,0.11,6.713-0.031
				c0.129,53.709,0.68,107.389,2.894,161.1c1.248,30.32,48.452,30.447,47.205,0c-1.508-36.4-2.245-112.295-2.604-178.854
				l51.688,44.426c-7.01,11.312-10.368,24.488-9.555,38c0.998,16.562,8.148,31.879,20.164,43.238c0.311,0.334,0.645,0.653,1,0.961
				l53.557,46.033c5.13,4.41,12.862,3.824,17.271-1.307l68.656-79.877C460.298,372.509,459.711,364.779,454.582,360.371z"/>
		</g>
	</g>
</g>
</svg>
