
<svg version="1.1" id="map" xmlns="http://www.w3.org/2000/svg" xmlns:xlink="http://www.w3.org/1999/xlink" x="0px" y="0px"
	 width="2287.647px" height="623.875px" viewBox="121.803 7999.116 2287.647 623.875">
<g id="mapgrp">
	<path d="M1856.738,8272.28h1.732h1.732c1.656,0,3-1.344,3-3v-0.021v-0.021l-0.006-0.166v-0.019
		c-0.008-0.125-0.017-0.204-0.037-0.327l-0.002-0.018c-0.021-0.123-0.062-0.291-0.1-0.41l-0.006-0.02
		c-0.037-0.119-0.047-0.146-0.096-0.262l-0.008-0.019c-0.05-0.115-0.082-0.185-0.144-0.293l-0.01-0.019
		c-0.027-0.049-0.063-0.106-0.101-0.164c0.031-0.053,0.067-0.103,0.101-0.16l0.01-0.018c0.062-0.109,0.067-0.124,0.119-0.238
		l0.008-0.018c0.052-0.113,0.082-0.195,0.119-0.314l0.006-0.02c0.038-0.119,0.078-0.287,0.099-0.41l0.004-0.018
		c0.021-0.123,0.029-0.211,0.037-0.336v-0.02l0.004-0.157v-0.021v-0.021c0-0.79-0.319-1.562-0.879-2.121
		c-0.559-0.56-1.33-0.879-2.121-0.879h-1.731h-1.731c-0.791,0-1.562,0.319-2.121,0.879c-0.56,0.56-0.879,1.331-0.879,2.121v0.021
		v0.021c0,0.125,0.002,0.188,0.017,0.313l0.002,0.02l0.024,0.18l0.002,0.018c0.021,0.123,0.025,0.148,0.059,0.271l0.005,0.019
		c0.045,0.171,0.088,0.293,0.16,0.455l0.008,0.019c0.052,0.113,0.116,0.238,0.183,0.346l0.011,0.018l0.036,0.055
		c-0.012,0.02-0.022,0.033-0.036,0.057l-0.011,0.018c-0.065,0.105-0.157,0.285-0.205,0.4l-0.008,0.019
		c-0.05,0.115-0.104,0.278-0.138,0.399l-0.005,0.02c-0.032,0.121-0.037,0.146-0.059,0.271l-0.002,0.018l-0.022,0.162l-0.002,0.018
		c-0.015,0.125-0.019,0.207-0.019,0.332v0.021v0.021c0,0.789,0.319,1.562,0.879,2.121
		C1855.176,8271.962,1855.948,8272.28,1856.738,8272.28z"/>
	<path d="M1639.194,8269.216h-1.731h-1.732c-0.79,0-1.562,0.32-2.121,0.879s-0.879,1.331-0.879,2.121v0.021v0.021l0.004,0.157
		l0.001,0.02c0.007,0.125,0.013,0.188,0.032,0.311l0.004,0.02c0.027,0.174,0.061,0.312,0.117,0.479l0.006,0.019
		c0.039,0.119,0.054,0.155,0.104,0.271l0.008,0.019c0.052,0.113,0.116,0.238,0.183,0.346l0.011,0.018
		c0.014,0.022,0.023,0.037,0.035,0.057l-0.035,0.055l-0.011,0.018c-0.065,0.105-0.131,0.23-0.183,0.346l-0.008,0.019
		c-0.051,0.114-0.082,0.196-0.119,0.315l-0.007,0.019c-0.036,0.119-0.083,0.312-0.102,0.437l-0.005,0.019
		c-0.02,0.123-0.023,0.177-0.03,0.302l-0.001,0.018l-0.005,0.166v0.021v0.021c0,0.791,0.319,1.562,0.879,2.121
		c0.56,0.56,1.331,0.879,2.121,0.879h1.731h1.724c0.004,0,0.007,0.002,0.01,0.002c1.656,0,3-1.344,3-3v-0.021v-0.021l-0.005-0.166
		l-0.001-0.018c-0.007-0.125-0.017-0.204-0.036-0.327l-0.003-0.019c-0.021-0.123-0.062-0.291-0.099-0.41l-0.006-0.019
		c-0.037-0.119-0.048-0.146-0.097-0.261l-0.008-0.02c-0.068-0.163-0.149-0.316-0.246-0.466l-0.005-0.008l0.035-0.054l0.011-0.019
		c0.065-0.106,0.131-0.231,0.183-0.347l0.008-0.018c0.051-0.113,0.064-0.15,0.104-0.271l0.006-0.018
		c0.057-0.168,0.09-0.307,0.117-0.48l0.003-0.019c0.021-0.123,0.026-0.187,0.033-0.312l0.001-0.019l0.004-0.157v-0.021v-0.021
		c0-0.79-0.32-1.562-0.879-2.121S1639.984,8269.216,1639.194,8269.216z"/>
	<path d="M1783.068,8270.146h1.732h1.732c1.656,0,3-1.343,3-3v-0.021v-0.02l-0.004-0.157l-0.001-0.019
		c-0.01-0.179-0.024-0.287-0.061-0.461l-0.005-0.02l-0.045-0.186l-0.004-0.018c-0.049-0.171-0.104-0.32-0.181-0.48l-0.009-0.02
		l-0.09-0.173l-0.01-0.019c-0.025-0.047-0.062-0.104-0.099-0.16c0.036-0.058,0.072-0.114,0.099-0.162l0.01-0.019l0.062-0.115
		l0.01-0.019c0.097-0.193,0.161-0.367,0.217-0.578l0.006-0.019l0.027-0.112l0.004-0.019c0.037-0.173,0.058-0.315,0.066-0.493
		l0.001-0.02l0.004-0.156v-0.021v-0.021c0-0.791-0.319-1.562-0.879-2.121c-0.56-0.56-1.331-0.879-2.121-0.879h-1.733h-1.731
		c-0.79,0-1.562,0.319-2.121,0.879c-0.559,0.559-0.879,1.33-0.879,2.121v0.021v0.021c0,0.125,0.003,0.188,0.017,0.313l0.002,0.019
		l0.002,0.018l0.002,0.018c0.021,0.176,0.067,0.403,0.121,0.572l0.006,0.02c0.037,0.119,0.068,0.201,0.119,0.314l0.008,0.018
		c0.052,0.114,0.116,0.239,0.183,0.347l0.011,0.019c0.014,0.021,0.023,0.035,0.034,0.055c-0.011,0.018-0.021,0.032-0.034,0.055
		l-0.011,0.018c-0.065,0.105-0.157,0.285-0.205,0.4l-0.008,0.019l-0.081,0.216l-0.006,0.018c-0.069,0.205-0.115,0.418-0.139,0.635
		l-0.002,0.019l-0.002,0.019c-0.014,0.125-0.017,0.189-0.017,0.314v0.02v0.021c0,0.79,0.319,1.562,0.879,2.121
		S1782.278,8270.146,1783.068,8270.146z"/>
	<path d="M1709.398,8272.284h1.732h1.724c0.004,0,0.007,0,0.01,0c1.656,0,3-1.342,3-3v-0.021v-0.021l-0.004-0.156l-0.001-0.02
		c-0.01-0.178-0.023-0.287-0.061-0.461l-0.004-0.02l-0.045-0.185l-0.006-0.019c-0.033-0.121-0.099-0.301-0.148-0.416l-0.008-0.018
		c-0.052-0.113-0.117-0.238-0.183-0.346l-0.011-0.019l-0.037-0.056l0.1-0.164l0.01-0.018c0.062-0.109,0.068-0.124,0.119-0.238
		l0.008-0.018c0.052-0.113,0.082-0.195,0.119-0.314l0.006-0.02l0.068-0.253l0.004-0.019c0.038-0.172,0.058-0.308,0.066-0.483
		l0.001-0.019l0.005-0.166v-0.021v-0.021c0-0.791-0.32-1.562-0.879-2.121c-0.559-0.56-1.331-0.879-2.121-0.879h-1.732h-1.732
		c-0.79,0-1.562,0.319-2.121,0.879c-0.559,0.559-0.879,1.33-0.879,2.121v0.021v0.021c0,0.125,0.005,0.207,0.02,0.332l0.002,0.018
		l0.021,0.162l0.003,0.018c0.021,0.123,0.024,0.149,0.058,0.271l0.006,0.02c0.056,0.209,0.121,0.383,0.218,0.578l0.009,0.018
		l0.061,0.115l0.011,0.018c0.032,0.059,0.067,0.107,0.102,0.16c-0.036,0.058-0.073,0.115-0.102,0.164l-0.011,0.019l-0.088,0.173
		l-0.009,0.02c-0.076,0.16-0.146,0.35-0.19,0.521l-0.004,0.019c-0.032,0.121-0.037,0.147-0.059,0.271l-0.003,0.018l-0.022,0.162
		l-0.002,0.019c-0.014,0.124-0.019,0.206-0.019,0.331v0.021v0.02c0,0.79,0.319,1.562,0.879,2.121
		S1708.608,8272.284,1709.398,8272.284z"/>
	<path d="M1071.365,8379.846h-9.47v-43.208v-13.4c0-0.002,0.001-0.006,0.001-0.01c0-0.002-0.001-0.006-0.001-0.01v-32.787
		c0-0.789-0.32-1.562-0.879-2.121c-0.56-0.559-1.331-0.879-2.121-0.879h-7.701h-0.608v-46.141c0-1.657-1.343-3-3-3
		c-0.793,0-1.51,0.312-2.046,0.816c-0.536-0.504-1.253-0.816-2.046-0.816h-33.736c-1.657,0-3,1.343-3,3s1.343,3,3,3h30.736v43.141
		h-30.736c-1.657,0-3,1.344-3,3v15.402c0,1.657,1.343,3,3,3c1.656,0,3-1.343,3-3v-12.402h30.736h7.701h4.701v26.797h-43.326
		c-0.416-1.158-1.513-1.992-2.813-1.992c-1.657,0-3,1.344-3,3v4.521c0,1.657,1.343,3,3,3c1.495,0,2.725-1.097,2.952-2.526h43.188
		v10.41v43.207h-21.57h-21.569v-17.845v-20.845c0-1.656-1.343-3-3-3s-3,1.344-3,3v20.845v20.845c0,0.789,0.319,1.562,0.879,2.121
		c0.559,0.559,1.331,0.879,2.121,0.879h24.569h24.562c0.003,0,0.006,0,0.01,0h12.469c1.657,0,3-1.342,3-3
		C1074.367,8381.19,1073.022,8379.846,1071.365,8379.846z"/>
	<path d="M227.961,8387.765c-0.497-0.366-1.104-0.591-1.769-0.592c-1.081-0.002-2.021,0.573-2.551,1.43h-16.375
		c-1.657,0-3,1.344-3,3c0,0.168,0.022,0.328,0.049,0.488c-0.085,0.277-0.146,0.568-0.146,0.875c0,1.657,1.344,3,3,3h16.604
		c0.274,0.371,0.633,0.672,1.047,0.885c0.496,0.365,1.103,0.588,1.766,0.589c1.657,0.003,3.002-1.337,3.007-2.994l0.008-4.015
		C229.603,8389.264,228.932,8388.263,227.961,8387.765z"/>
	<path d="M2378.509,8336.907c0.058-0.106,0.112-0.217,0.15-0.315l0.009-0.021l0.061-0.166l0.006-0.018
		c0.057-0.168,0.084-0.279,0.113-0.455l0.003-0.018c0.021-0.123,0.029-0.203,0.036-0.328l0.001-0.018l0.005-0.166v-0.021v-0.021
		c0-0.79-0.32-1.562-0.879-2.121c-0.042-0.042-0.094-0.071-0.137-0.11v-8.416c0-1.658-1.345-3-3-3h-8.058
		c-0.52-0.895-1.477-1.502-2.585-1.502c-0.003,0-0.007,0.002-0.01,0.002l-51.312-0.027c-0.004,0-0.006-0.001-0.01-0.001
		c-1.107,0-2.064,0.606-2.584,1.501h-3.598v-0.178v-2.934c0-0.79-0.32-1.562-0.879-2.121c-0.195-0.195-0.424-0.352-0.664-0.484
		c-0.093-0.638-0.379-1.24-0.837-1.699c-0.56-0.559-1.331-0.879-2.121-0.879h-0.021h-0.021l-0.158,0.004l-0.018,0.002
		c-0.125,0.006-0.188,0.014-0.312,0.033l-0.019,0.002c-0.124,0.021-0.316,0.064-0.437,0.104l-0.019,0.006
		c-0.119,0.037-0.269,0.096-0.382,0.148l-0.019,0.01l-0.173,0.088l-0.019,0.01c-0.042,0.023-0.093,0.057-0.143,0.088
		c-0.05-0.031-0.102-0.063-0.144-0.088l-0.018-0.01l-0.174-0.088l-0.019-0.01c-0.113-0.054-0.262-0.111-0.381-0.148l-0.02-0.006
		c-0.118-0.038-0.312-0.083-0.436-0.104l-0.02-0.002c-0.124-0.021-0.186-0.026-0.311-0.033l-0.02-0.002l-0.157-0.004h-0.021h-0.011
		c-0.004,0-0.006,0-0.01,0h-70.187c-0.007,0-0.013-0.002-0.021-0.002h-0.021h-0.021l-0.158,0.004h-0.019
		c-0.178,0.01-0.288,0.024-0.461,0.062l-0.019,0.004l-0.146,0.034l-0.019,0.005c-0.121,0.032-0.285,0.088-0.4,0.138l-0.019,0.008
		c-0.115,0.047-0.294,0.14-0.4,0.205l-0.018,0.011c-0.016,0.009-0.022,0.015-0.035,0.022c-0.013-0.008-0.021-0.015-0.035-0.022
		l-0.018-0.011c-0.107-0.065-0.285-0.158-0.4-0.205l-0.019-0.008c-0.115-0.049-0.28-0.104-0.4-0.138l-0.019-0.005l-0.146-0.034
		l-0.019-0.004c-0.175-0.036-0.284-0.051-0.461-0.062h-0.02l-0.157-0.004h-0.021h-0.021c-0.007,0-0.013,0.002-0.02,0.002h-70.188
		c-0.004,0-0.006,0-0.01,0h-0.011h-0.021l-0.158,0.004l-0.019,0.002c-0.125,0.006-0.213,0.017-0.336,0.037l-0.018,0.002
		c-0.124,0.021-0.249,0.051-0.369,0.086l-0.021,0.006c-0.118,0.035-0.309,0.108-0.422,0.162l-0.019,0.01l-0.173,0.088l-0.019,0.01
		c-0.042,0.023-0.093,0.057-0.144,0.088c-0.049-0.031-0.1-0.063-0.142-0.088l-0.019-0.01l-0.173-0.088l-0.019-0.01
		c-0.113-0.054-0.262-0.111-0.381-0.148l-0.02-0.006c-0.169-0.055-0.283-0.08-0.459-0.105l-0.02-0.004
		c-0.123-0.019-0.153-0.021-0.278-0.027l-0.019-0.001l-0.166-0.005h-0.021h-0.013c-0.004,0-0.006-0.001-0.01-0.001h-70.204h-0.021
		h-0.021c-0.114,0-0.183,0.004-0.287,0.015c-0.062,0.006-0.12,0.013-0.198,0.024l-0.02,0.003c-0.124,0.02-0.273,0.055-0.395,0.09
		l-0.021,0.006c-0.119,0.035-0.242,0.081-0.356,0.132l-0.018,0.008c-0.021,0.009-0.041,0.022-0.062,0.033
		c-0.015,0.006-0.027,0.01-0.043,0.017l-0.018,0.01l-0.115,0.062l-0.018,0.01c-0.017,0.009-0.036,0.022-0.055,0.033
		c-0.012,0.007-0.024,0.013-0.035,0.019l-0.019,0.012c-0.015,0.009-0.023,0.016-0.037,0.023c-0.011-0.008-0.021-0.018-0.032-0.023
		l-0.019-0.012c-0.021-0.012-0.05-0.026-0.073-0.039c-0.006-0.004-0.011-0.01-0.017-0.013l-0.019-0.01l-0.054-0.026
		c-0.024-0.015-0.045-0.023-0.07-0.037l-0.049-0.024l-0.019-0.009c-0.009-0.004-0.02-0.007-0.026-0.01
		c-0.024-0.012-0.054-0.027-0.075-0.036l-0.019-0.008c-0.115-0.049-0.143-0.06-0.261-0.097l-0.02-0.006
		c-0.169-0.054-0.283-0.08-0.459-0.105l-0.02-0.003c-0.096-0.015-0.145-0.021-0.215-0.022c-0.081-0.008-0.154-0.013-0.248-0.013
		h-0.021h-0.021c-0.79,0-1.562,0.319-2.121,0.879c-0.364,0.362-0.612,0.821-0.753,1.312c-0.852,0.528-1.423,1.465-1.423,2.543v3.588
		h-4.292c-0.52-0.894-1.477-1.5-2.584-1.5c-0.004,0-0.006,0-0.01,0h-47.842c-0.002,0-0.006,0-0.01,0c-1.107,0-2.064,0.606-2.584,1.5
		h-4.291v-1.908c0.231-0.131,0.454-0.283,0.646-0.474c0.559-0.56,0.879-1.331,0.879-2.121v-0.409v-0.408v-0.001v-0.001v-35.671
		c4.688,0.856,9.373,1.731,14.051,2.642c0.011,0.002,0.02,0.002,0.028,0.004c0.011,0.002,0.02,0.006,0.029,0.008
		c0.095,0.017,0.188,0.013,0.279,0.021c0.1,0.008,0.198,0.022,0.297,0.021c0.104-0.002,0.205-0.021,0.307-0.033
		c0.093-0.012,0.188-0.017,0.277-0.035c0.102-0.022,0.194-0.062,0.293-0.094c0.086-0.027,0.175-0.049,0.258-0.086
		c0.092-0.041,0.177-0.095,0.265-0.145c0.08-0.045,0.163-0.084,0.238-0.137c0.08-0.055,0.149-0.121,0.224-0.184
		c0.073-0.062,0.15-0.118,0.219-0.188c0.065-0.066,0.119-0.146,0.181-0.219c0.062-0.077,0.129-0.148,0.184-0.232
		c0.054-0.08,0.093-0.17,0.138-0.256c0.047-0.088,0.099-0.172,0.136-0.265c0.038-0.095,0.061-0.196,0.09-0.297
		c0.024-0.087,0.06-0.168,0.077-0.258c0.002-0.01,0.001-0.019,0.003-0.028c0.001-0.011,0.006-0.02,0.008-0.028l1.044-5.989l0,0
		c0-0.002,0-0.002,0-0.002l0.012-0.062c0.015-0.081,0.01-0.16,0.018-0.241c0.011-0.111,0.025-0.225,0.023-0.336
		c-0.002-0.096-0.02-0.186-0.029-0.279c-0.012-0.102-0.019-0.205-0.039-0.304c-0.021-0.095-0.057-0.185-0.088-0.274
		c-0.028-0.092-0.053-0.188-0.092-0.274c-0.039-0.088-0.09-0.168-0.137-0.252c-0.047-0.085-0.088-0.172-0.143-0.252
		c-0.053-0.075-0.116-0.142-0.176-0.212c-0.063-0.078-0.123-0.158-0.195-0.229c-0.062-0.062-0.137-0.112-0.204-0.17
		c-0.081-0.065-0.159-0.137-0.247-0.194c-0.072-0.048-0.154-0.083-0.23-0.125c-0.097-0.051-0.188-0.106-0.291-0.147
		c-0.082-0.033-0.17-0.051-0.254-0.078c-0.099-0.028-0.191-0.067-0.295-0.088l0,0c-7.438-1.457-14.889-2.848-22.351-4.17
		c-0.408-0.072-0.812-0.06-1.192,0.028c-0.051,0.013-0.097,0.034-0.146,0.048c-0.138,0.039-0.274,0.078-0.404,0.137
		c-0.103,0.045-0.196,0.107-0.293,0.164c-0.069,0.041-0.143,0.072-0.207,0.117c-0.037,0.026-0.067,0.062-0.104,0.088l-22.538-3.748
		c-0.005-0.002-0.009,0-0.015-0.002c-0.006,0-0.011-0.002-0.016-0.004l-0.338-0.053h0.002l-0.336-0.053
		c-0.006-0.002-0.01,0-0.016-0.002c-0.005,0-0.01-0.002-0.016-0.004l-23.758-3.479c-0.006-0.001-0.012,0-0.02-0.001
		c-0.004,0-0.008-0.002-0.013-0.003l-0.338-0.046l-0.338-0.046c-0.005,0-0.009,0-0.011,0c-0.006-0.001-0.012-0.003-0.017-0.004
		l-23.819-3.019c-0.006-0.002-0.013,0-0.019-0.002c-0.003,0-0.005,0-0.007,0l-0.339-0.041h-0.009l-0.338-0.039
		c-0.002,0-0.005,0-0.007,0c-0.007-0.002-0.012-0.004-0.019-0.004l-23.874-2.557c-0.005,0-0.009,0-0.013,0
		c-0.006-0.001-0.011-0.002-0.016-0.003l-0.34-0.033l-0.018-0.002l-0.338-0.03c-0.002,0-0.002,0-0.004,0
		c-0.004,0-0.007-0.002-0.011-0.002l-23.919-2.094c-0.002,0-0.005,0-0.007,0c-0.008,0-0.015-0.002-0.022-0.004l-0.34-0.025
		l0.008,0.001l-0.34-0.026c-0.01-0.002-0.019,0-0.027,0c-0.003,0-0.006-0.002-0.01-0.002l-23.955-1.629
		c-0.008,0-0.014,0.002-0.021,0.002c-0.001,0-0.003-0.002-0.004-0.002l-0.34-0.021l-0.009-0.001l-0.34-0.02
		c-0.006,0-0.012,0-0.017,0c-0.004,0-0.007-0.002-0.011-0.002l-23.982-1.164c-0.007,0-0.013,0.002-0.02,0.002
		c-0.006,0-0.01-0.002-0.016-0.002l-0.341-0.014h0.009l-0.34-0.014c-0.005,0-0.009,0-0.014,0c-0.007,0-0.014-0.002-0.021-0.002
		l-24-0.699c-0.01,0-0.018,0.002-0.026,0.002l-0.342-0.006l-0.341-0.008h-0.002c-0.011,0-0.02-0.002-0.028-0.002l-24.009-0.232
		c-0.006,0-0.01,0.001-0.017,0.001c-0.005,0-0.009-0.001-0.014-0.001h-0.343h-0.34c-0.006,0-0.011,0.001-0.015,0.001
		c-0.006,0-0.011-0.001-0.016-0.001l-24.009,0.232c-0.011,0-0.02,0.002-0.028,0.002c0,0-0.001,0-0.002,0l-0.343,0.008l-0.34,0.006
		c-0.01,0-0.019-0.002-0.026-0.002l-24.001,0.699c-0.007,0-0.014,0.002-0.021,0.002c-0.004,0-0.009,0-0.013,0l-0.341,0.014h0.009
		l-0.341,0.014c-0.005,0-0.01,0.002-0.015,0.002c-0.007,0-0.013-0.002-0.021-0.002l-23.982,1.164c-0.004,0-0.006,0.002-0.01,0.002
		c-0.007,0-0.012,0-0.017,0l-0.341,0.02l-0.01,0.001l-0.34,0.021c0,0-0.002,0.002-0.004,0.002c-0.007,0-0.013-0.002-0.02-0.002
		l-23.955,1.629c-0.003,0-0.006,0.002-0.009,0.002c-0.011,0-0.02-0.002-0.028,0l-0.34,0.026l0.009-0.001l-0.34,0.025
		c-0.008,0.002-0.015,0.004-0.022,0.004c-0.002,0-0.004,0-0.006,0l-23.92,2.094c-0.005,0-0.008,0.002-0.012,0.002
		c0,0-0.001,0-0.002,0l-0.34,0.03l-0.018,0.002l-0.34,0.033c-0.006,0.001-0.011,0.002-0.016,0.003c-0.004,0-0.008,0-0.012,0
		l-23.874,2.557c-0.006,0-0.013,0.002-0.019,0.004c-0.002,0-0.004,0-0.006,0l-0.34,0.039h-0.008l-0.34,0.041
		c-0.002,0-0.004,0-0.007,0.002c-0.007,0-0.013-0.002-0.019,0l-23.819,3.019c-0.005,0.001-0.011,0.003-0.017,0.004
		c-0.003,0-0.007,0-0.011,0l-0.338,0.046l-0.337,0.046c-0.005,0.001-0.01,0.002-0.014,0.003c-0.006,0.001-0.012,0-0.02,0.001
		l-23.757,3.479c-0.006,0.002-0.011,0.004-0.017,0.004c-0.004,0.002-0.01,0-0.014,0.002l-0.337,0.053l-0.337,0.053
		c-0.005,0.002-0.01,0.004-0.016,0.004c-0.004,0.002-0.01,0-0.014,0.002l-22.539,3.748c-0.034-0.027-0.065-0.062-0.104-0.088
		c-0.064-0.045-0.139-0.076-0.207-0.117c-0.097-0.058-0.189-0.119-0.293-0.166c-0.13-0.058-0.267-0.097-0.404-0.136
		c-0.049-0.015-0.095-0.037-0.146-0.048c-0.38-0.088-0.784-0.102-1.192-0.029c-7.463,1.324-14.914,2.715-22.352,4.17
		c-0.104,0.021-0.197,0.061-0.297,0.09c-0.084,0.025-0.17,0.045-0.252,0.076c-0.104,0.043-0.198,0.1-0.297,0.152
		c-0.074,0.04-0.153,0.074-0.225,0.12c-0.093,0.062-0.173,0.135-0.257,0.204c-0.065,0.055-0.135,0.102-0.194,0.16
		c-0.074,0.074-0.139,0.159-0.205,0.24c-0.057,0.066-0.115,0.13-0.166,0.201c-0.057,0.082-0.1,0.173-0.147,0.262
		c-0.045,0.08-0.095,0.158-0.132,0.242c-0.038,0.09-0.062,0.184-0.092,0.274c-0.03,0.093-0.066,0.183-0.088,0.276
		c-0.021,0.094-0.025,0.19-0.037,0.287c-0.013,0.1-0.029,0.196-0.031,0.299c-0.002,0.097,0.013,0.193,0.021,0.291
		c0.009,0.095,0.005,0.188,0.021,0.283l1.055,6.053c0.002,0.01,0.006,0.02,0.009,0.029c0.002,0.01,0,0.019,0.002,0.027
		c0.019,0.091,0.054,0.172,0.078,0.259c0.028,0.101,0.051,0.201,0.09,0.296c0.037,0.093,0.088,0.176,0.135,0.264
		c0.046,0.086,0.086,0.178,0.139,0.258c0.055,0.082,0.121,0.154,0.184,0.231c0.061,0.073,0.114,0.151,0.182,0.22
		c0.066,0.068,0.146,0.125,0.221,0.188c0.073,0.062,0.143,0.128,0.221,0.182c0.077,0.055,0.163,0.095,0.246,0.142
		c0.085,0.047,0.166,0.101,0.256,0.14c0.088,0.039,0.184,0.062,0.274,0.092c0.092,0.029,0.181,0.065,0.274,0.088
		c0.101,0.021,0.203,0.026,0.306,0.039c0.093,0.011,0.185,0.027,0.278,0.029c0.111,0.002,0.226-0.014,0.34-0.023
		c0.08-0.008,0.158-0.004,0.238-0.019c0.009-0.002,0.017-0.005,0.023-0.007c0.012-0.002,0.021-0.001,0.034-0.003
		c4.679-0.91,9.362-1.786,14.052-2.644v35.672l0,0v0.408v0.41c0,0.789,0.32,1.562,0.879,2.121c0.19,0.189,0.412,0.342,0.646,0.474
		v1.909h-4.29c-0.521-0.895-1.478-1.501-2.585-1.501c-0.008,0-0.014,0.002-0.021,0.002h-47.832c-0.003,0-0.007-0.001-0.01-0.001
		c-1.108,0-2.065,0.607-2.585,1.501h-4.291v-3.589c0-1.076-0.571-2.014-1.423-2.542c-0.14-0.49-0.39-0.948-0.752-1.312
		c-0.56-0.56-1.331-0.879-2.121-0.879h-0.021h-0.021l-0.167,0.004l-0.019,0.002c-0.125,0.006-0.153,0.01-0.277,0.027l-0.02,0.003
		c-0.018,0.003-0.027,0.006-0.043,0.008l-0.006,0.001h-0.002c-0.129,0.021-0.235,0.047-0.361,0.085
		c-0.002,0-0.004,0.001-0.006,0.001l-0.012,0.004c-0.011,0.003-0.019,0.004-0.029,0.008l-0.019,0.006
		c-0.005,0.002-0.012,0.005-0.017,0.007c-0.084,0.026-0.151,0.05-0.245,0.09l-0.02,0.008c-0.02,0.008-0.047,0.022-0.069,0.032
		c-0.01,0.005-0.021,0.008-0.03,0.014l-0.019,0.008l-0.059,0.029c-0.021,0.012-0.035,0.02-0.055,0.027l-0.062,0.031l-0.018,0.01
		c-0.013,0.007-0.028,0.02-0.042,0.025c-0.016,0.008-0.036,0.02-0.049,0.026l-0.019,0.011c-0.014,0.01-0.021,0.016-0.034,0.021
		c-0.013-0.008-0.021-0.014-0.035-0.021l-0.019-0.012c-0.012-0.007-0.03-0.018-0.044-0.023c-0.015-0.008-0.031-0.021-0.045-0.027
		l-0.018-0.01l-0.115-0.062l-0.018-0.008c-0.014-0.006-0.024-0.01-0.037-0.016c-0.043-0.021-0.09-0.044-0.125-0.059l-0.019-0.008
		c-0.114-0.049-0.142-0.06-0.261-0.097l-0.02-0.006c-0.003-0.001-0.007-0.002-0.01-0.003c-0.004-0.001-0.007-0.003-0.011-0.004
		l-0.021-0.006c-0.014-0.004-0.031-0.006-0.045-0.012c-0.111-0.029-0.242-0.062-0.342-0.076c-0.003-0.002-0.006-0.002-0.008-0.002
		l-0.02-0.004c-0.094-0.015-0.156-0.021-0.234-0.026c-0.082-0.008-0.156-0.013-0.252-0.013h-0.021h-0.021h-70.204h-0.021h-0.021
		h-0.02c-0.217,0-0.404,0.021-0.617,0.064l-0.02,0.004c-0.122,0.025-0.166,0.037-0.285,0.075l-0.02,0.006
		c-0.119,0.037-0.146,0.047-0.261,0.097l-0.019,0.008c-0.115,0.047-0.184,0.08-0.293,0.143l-0.018,0.01
		c-0.05,0.027-0.095,0.066-0.144,0.098c-0.049-0.03-0.094-0.069-0.144-0.098l-0.018-0.01c-0.109-0.062-0.178-0.096-0.293-0.143
		l-0.019-0.008c-0.115-0.049-0.142-0.06-0.261-0.097l-0.02-0.006c-0.119-0.038-0.191-0.058-0.314-0.081l-0.021-0.004
		c-0.173-0.035-0.411-0.059-0.588-0.059h-0.019h-0.021h-0.021h-70.189c-0.007,0-0.013-0.002-0.02-0.002h-0.021h-0.021l-0.166,0.004
		l-0.019,0.002c-0.125,0.006-0.328,0.033-0.451,0.06l-0.019,0.004l-0.146,0.034l-0.019,0.005c-0.171,0.045-0.293,0.088-0.455,0.16
		l-0.019,0.008c-0.113,0.051-0.238,0.116-0.346,0.183l-0.018,0.011c-0.014,0.009-0.021,0.015-0.034,0.021
		c-0.012-0.006-0.021-0.013-0.034-0.021l-0.018-0.011c-0.106-0.065-0.231-0.131-0.346-0.183l-0.019-0.008
		c-0.114-0.051-0.296-0.116-0.416-0.149l-0.018-0.004l-0.216-0.051l-0.02-0.004c-0.122-0.024-0.297-0.047-0.422-0.055l-0.018-0.001
		l-0.166-0.005h-0.017h-0.021c-0.008,0-0.014,0.002-0.021,0.002h-70.19h-0.021h-0.021c-0.125,0-0.207,0.005-0.332,0.02l-0.018,0.002
		l-0.137,0.019l-0.02,0.003c-0.175,0.027-0.312,0.061-0.48,0.117l-0.018,0.006l-0.215,0.081l-0.02,0.008
		c-0.158,0.065-0.307,0.146-0.451,0.237c-0.013-0.008-0.021-0.014-0.035-0.021l-0.018-0.012c-0.105-0.064-0.23-0.131-0.346-0.182
		l-0.019-0.008c-0.114-0.051-0.151-0.064-0.271-0.104l-0.018-0.006c-0.168-0.058-0.307-0.09-0.48-0.117l-0.02-0.004l-0.137-0.019
		l-0.018-0.002c-0.124-0.015-0.206-0.019-0.331-0.019h-0.021h-0.021c-0.79,0-1.562,0.319-2.121,0.879
		c-0.426,0.426-0.71,0.975-0.822,1.562c-0.659,0.551-1.087,1.367-1.087,2.293v3.997h-111.979v-19.225
		c0-0.387-0.08-0.752-0.213-1.092h0.146c1.656,0,3-1.344,3-3v-4.094c0-1.656-1.344-3-3-3h-4.217v-1.217h1.283c1.656,0,3-1.344,3-3
		v-43.273c0-1.657-1.344-3-3-3h-1.283v-1.217h4.217c1.656,0,3-1.343,3-3v-4.093c0-0.331-0.066-0.644-0.166-0.94
		c0.639-0.551,1.052-1.355,1.052-2.266v-185.172h29.197v61.805h-21.968v-49.114c0-1.657-1.342-3-3-3c-1.656,0-3,1.343-3,3v52.114
		c0,1.656,1.344,3,3,3h27.968c1.657,0,3-1.344,3-3v-67.805c0-1.657-1.343-3-3-3h-32.687c-0.156-0.236-0.349-0.443-0.562-0.629
		c0.099-0.298,0.166-0.609,0.166-0.941v-4.092c0-1.658-1.344-3-3-3h-4.217v-4.217c0-1.656-1.344-3-3-3h-4.094c-1.656,0-3,1.344-3,3
		v0.146c-0.339-0.134-0.706-0.213-1.093-0.213h-93.881h-93.881c-0.376,0-0.747,0.077-1.094,0.214v-0.146c0-1.658-1.344-3-3-3h-4.094
		c-1.656,0-3,1.342-3,3v4.215h-4.217c-1.657,0-3,1.344-3,3v4.094c0,1.656,1.343,3,3,3h0.146c-0.134,0.34-0.212,0.705-0.212,1.092
		v187.764c0,0.387,0.078,0.754,0.212,1.093h-0.146c-1.657,0-3,1.343-3,3v4.093c0,1.657,1.343,3,3,3h4.217v1.217h-1.282
		c-1.657,0-3,1.343-3,3v43.207h-43.207c-1.657,0-3,1.343-3,3v1.284h-1.219v-4.218c0-1.657-1.343-3-3-3h-4.092c-1.656,0-3,1.343-3,3
		v0.146c-0.339-0.135-0.706-0.213-1.093-0.213H686.304c-0.387,0-0.753,0.078-1.094,0.213v-0.146c0-1.657-1.343-3-3-3h-4.093
		c-1.657,0-3,1.343-3,3v4.218h-1.217v-1.284c0-1.657-1.343-3-3-3h-43.272c-1.657,0-3,1.343-3,3v1.284h-1.219v-4.218
		c0-1.657-1.343-3-3-3h-4.093c-1.657,0-3,1.343-3,3v0.146c-0.339-0.133-0.706-0.213-1.092-0.213H424.465
		c-0.388,0-0.754,0.08-1.094,0.213v-0.146c0-1.657-1.343-3-3-3h-4.093c-1.657,0-3,1.343-3,3v4.218h-1.217v-1.284
		c0-1.657-1.343-3-3-3h-43.207v-43.207c0-1.657-1.343-3-3-3h-1.284v-1.217h4.217c1.657,0,3-1.343,3-3v-4.093c0-1.657-1.343-3-3-3
		h-0.145c0.133-0.339,0.212-0.706,0.212-1.093v-171.835c1.045,0.919,2.625,1.014,3.781,0.145l16.598-12.465
		c1.325-0.994,1.592-2.875,0.597-4.199c-0.686-0.912-1.789-1.31-2.845-1.15v-8.607c0-0.199-0.021-0.396-0.06-0.59
		c-0.017-0.08-0.046-0.153-0.068-0.23c-0.031-0.109-0.058-0.223-0.103-0.33c-0.037-0.09-0.089-0.171-0.136-0.256
		c-0.046-0.087-0.085-0.177-0.141-0.26c-0.1-0.148-0.214-0.286-0.338-0.414c-0.014-0.014-0.021-0.029-0.034-0.042l-18.881-18.88
		c-0.142-0.141-0.295-0.268-0.461-0.378c-0.07-0.046-0.146-0.078-0.219-0.118c-0.099-0.055-0.193-0.113-0.298-0.156
		c-0.097-0.039-0.198-0.062-0.299-0.092c-0.087-0.026-0.17-0.061-0.261-0.078c-0.193-0.039-0.389-0.06-0.586-0.06c0,0,0,0-0.001,0
		h-28.143c-1.657,0-3,1.343-3,3v13.767H162.623c-0.387,0-0.753,0.08-1.093,0.213v-0.146c0-1.657-1.343-3-3-3h-4.093
		c-1.657,0-3,1.343-3,3v4.216h-4.217c-1.657,0-3,1.343-3,3v4.093c0,1.657,1.343,3,3,3h0.145c-0.133,0.34-0.212,0.706-0.212,1.093
		v187.764c0,0.387,0.079,0.754,0.212,1.092h-0.145c-1.657,0-3,1.344-3,3v4.094c0,1.656,1.343,3,3,3h4.217v1.217h-1.284
		c-1.657,0-3,1.342-3,3v43.272c0,1.657,1.343,3,3,3h1.284v1.218h-4.217c-1.657,0-3,1.343-3,3v4.093c0,1.657,1.343,3,3,3h0.145
		c-0.133,0.34-0.212,0.706-0.212,1.093v87.206c-0.256,0.44-0.414,0.948-0.414,1.496c0,0.235,0.034,0.462,0.085,0.683
		c-0.051,0.22-0.085,0.445-0.085,0.682c0,0.548,0.158,1.055,0.414,1.496v96.2c0,0.388,0.079,0.753,0.212,1.093h-0.145
		c-1.657,0-3,1.343-3,3v4.093c0,1.657,1.343,3,3,3h4.217v4.217c0,1.657,1.343,3,3,3h4.093c1.657,0,3-1.343,3-3v-0.146
		c0.339,0.133,0.706,0.213,1.093,0.213h187.752c0.004,0,0.007,0,0.011,0c0.387,0,0.753-0.078,1.093-0.213v0.146c0,1.657,1.343,3,3,3
		h4.093c1.657,0,3-1.343,3-3v-4.217h4.217c1.657,0,3-1.343,3-3v-4.093c0-0.069-0.016-0.138-0.021-0.206h37.314
		c-0.004,0.068-0.021,0.137-0.021,0.206v4.093c0,1.657,1.343,3,3,3h4.217v4.217c0,1.657,1.343,3,3,3h4.093c1.657,0,3-1.343,3-3
		v-0.146c0.34,0.135,0.706,0.213,1.094,0.213h154.015c0.003,0,0.006,0.002,0.01,0.002s0.006-0.002,0.011-0.002h33.719
		c0.003,0,0.006,0.002,0.01,0.002c0.386,0,0.753-0.08,1.092-0.213v0.146c0,1.657,1.344,3,3,3h4.094c1.656,0,3-1.343,3-3v-4.217
		h1.218v1.283c0,1.657,1.343,3,3,3h43.264c0.003,0,0.006,0.001,0.01,0.001c1.657,0,3-1.343,3-3v-1.284h1.218v4.217
		c0,1.657,1.343,3,3,3h4.093c1.657,0,3-1.343,3-3v-0.146c0.339,0.133,0.706,0.213,1.093,0.213h77.003c0.003,0,0.006,0,0.01,0
		s0.006,0,0.011,0h46.188c0.003,0,0.006,0,0.01,0s0.006,0,0.01,0h33.72c0.003,0,0.006,0,0.01,0s0.006,0,0.01,0h30.785
		c0.003,0,0.006,0,0.01,0c0.388,0,0.753-0.078,1.093-0.213v0.146c0,1.657,1.344,3,3,3h4.093c1.657,0,3-1.343,3-3v-4.217h4.218
		c1.657,0,3-1.343,3-3v-4.093c0-0.069-0.016-0.138-0.021-0.206h37.314c-0.004,0.068-0.021,0.137-0.021,0.206v4.093
		c0,0.915,0.419,1.725,1.063,2.273c0.55,0.647,1.361,1.067,2.278,1.067c0.494,0,0.953-0.131,1.363-0.342h2.513v4.217
		c0,1.657,1.343,3,3,3h4.093c1.657,0,3-1.343,3-3v-0.146c0.34,0.133,0.707,0.213,1.094,0.213h187.752c0.003,0,0.006,0,0.01,0
		c0.522,0,1.007-0.146,1.435-0.379v0.805c0,1.657,1.343,3,3,3h4.093c1.657,0,3-1.343,3-3v-4.367h4.367c1.656,0,3-1.343,3-3v-4.093
		c0-1.657-1.344-3-3-3h-0.258v-2.493h37.871v8.619c0,1.025,0.518,1.932,1.304,2.473v0.787v1.731c0,0.79,0.319,1.562,0.879,2.121
		c0.559,0.56,1.331,0.879,2.121,0.879h0.02h0.021h0.018c0.218,0,0.438-0.024,0.651-0.071l0.018-0.004l0.252-0.067l0.02-0.006
		c0.119-0.037,0.201-0.067,0.314-0.119l0.018-0.008c0.114-0.051,0.129-0.058,0.239-0.119l0.019-0.01
		c0.049-0.026,0.093-0.065,0.142-0.097c0.049,0.03,0.093,0.068,0.142,0.097l0.019,0.01c0.108,0.062,0.124,0.067,0.237,0.119
		l0.019,0.008c0.114,0.051,0.196,0.082,0.315,0.119l0.019,0.006l0.252,0.067l0.018,0.004c0.212,0.047,0.435,0.071,0.651,0.071h0.02
		h0.021h0.021h70.19c0.007,0,0.013,0.002,0.021,0.002h0.021h0.021l0.166-0.005l0.019-0.001c0.177-0.01,0.312-0.028,0.483-0.065
		l0.019-0.004l0.077-0.02l0.02-0.005c0.172-0.043,0.329-0.097,0.491-0.169l0.019-0.008c0.113-0.051,0.238-0.116,0.346-0.182
		l0.018-0.012c0.011-0.007,0.021-0.018,0.033-0.023c0.144,0.095,0.294,0.174,0.451,0.239l0.02,0.008
		c0.115,0.049,0.24,0.093,0.361,0.126l0.018,0.005l0.186,0.045l0.019,0.004c0.122,0.024,0.327,0.054,0.452,0.06l0.018,0.002
		l0.166,0.004h0.021h0.021c0.006,0,0.012-0.002,0.02-0.002h70.188h0.002c0.002,0,0.004,0,0.004,0h0.021h0.021h0.019
		c0.218,0,0.438-0.023,0.65-0.07l0.005-0.001h-0.001c0.245-0.052,0.499-0.14,0.724-0.252l0.018-0.009l0.224-0.124l0.019-0.011
		l0.033-0.022c0.104,0.065,0.223,0.133,0.331,0.185l0.02,0.01c0.227,0.106,0.421,0.172,0.666,0.225l0.003,0.001
		c0.213,0.047,0.436,0.071,0.65,0.071h0.019h0.021h0.021h70.205c0.003,0,0.007-0.002,0.01-0.002h0.012h0.021l0.156-0.004h0.02
		c0.177-0.01,0.287-0.024,0.461-0.062l0.02-0.004l0.108-0.024l0.021-0.006c0.172-0.043,0.328-0.097,0.49-0.168l0.019-0.008
		c0.114-0.051,0.239-0.117,0.346-0.183l0.019-0.011l0.045-0.028c0.046,0.028,0.084,0.065,0.133,0.093l0.018,0.01
		c0.109,0.062,0.178,0.096,0.293,0.143l0.02,0.008c0.115,0.049,0.142,0.06,0.261,0.097l0.019,0.006
		c0.119,0.038,0.192,0.058,0.314,0.081l0.02,0.004c0.174,0.035,0.412,0.059,0.59,0.059h0.018h0.021h0.021h48.653l-2.893,42.935
		h-10.658h-0.002c-1.656,0-3,1.343-3,3v4.092v4.095c0,0.197,0.021,0.395,0.061,0.588c0.234,1.186,1.168,2.117,2.354,2.353
		c0.192,0.039,0.39,0.06,0.588,0.06l0,0h18.586h14.19v18.691c0,1.657,1.343,3,3,3h75.745c1.656,0,3-1.343,3-3v-18.691h14.23h18.586
		c0.199,0,0.396-0.021,0.588-0.06c1.186-0.235,2.117-1.167,2.354-2.353c0.039-0.193,0.061-0.391,0.061-0.588v-4.095v-4.092
		c0-0.198-0.021-0.396-0.061-0.588c-0.234-1.187-1.168-2.117-2.354-2.353c-0.192-0.039-0.389-0.061-0.588-0.061h-10.699
		l-2.893-42.934h48.694c0.001,0,0.001,0,0.001,0h0.021h0.021h0.019c0.177,0,0.414-0.023,0.588-0.06l0.02-0.004l0.062-0.013
		l0.018-0.004c0.212-0.047,0.383-0.104,0.581-0.193l0.021-0.009c0.112-0.051,0.227-0.11,0.332-0.176l0.019-0.011
		c0.016-0.01,0.022-0.016,0.035-0.022l0.034,0.022l0.019,0.011l0.224,0.124l0.018,0.009c0.251,0.125,0.478,0.203,0.753,0.258
		l0.006,0.001l0.003,0.001c0.213,0.045,0.401,0.063,0.618,0.063h0.019h0.021h0.021h70.204h0.001h0.001h0.021h0.021h0.018
		c0.178,0,0.416-0.022,0.589-0.059l0.02-0.004l0.062-0.014l0.018-0.004c0.212-0.047,0.384-0.104,0.581-0.192l0.02-0.009
		c0.113-0.051,0.228-0.109,0.334-0.176l0.018-0.012c0.016-0.01,0.021-0.015,0.035-0.021l0.034,0.021l0.018,0.012
		c0.106,0.064,0.167,0.098,0.28,0.15l0.02,0.01c0.227,0.106,0.42,0.172,0.666,0.225l0.019,0.004l0.019,0.004
		c0.213,0.045,0.401,0.064,0.618,0.064h0.02h0.021h0.021h70.203h0.002l0,0h0.021h0.021h0.019c0.218,0,0.405-0.021,0.618-0.064
		l0.02-0.004c0.121-0.025,0.166-0.037,0.285-0.075l0.019-0.006c0.119-0.037,0.146-0.047,0.261-0.097l0.02-0.008
		c0.115-0.047,0.184-0.08,0.293-0.143l0.018-0.01c0.047-0.025,0.09-0.062,0.137-0.093c0.069,0.044,0.141,0.091,0.206,0.125
		l0.02,0.01l0.233,0.11l0.019,0.008c0.114,0.049,0.142,0.059,0.261,0.096l0.02,0.006c0.119,0.038,0.162,0.05,0.285,0.075
		l0.019,0.004c0.213,0.045,0.401,0.063,0.618,0.063h0.018h0.021h0.021h70.204c0,0,0,0,0.001,0h0.021h0.021h0.02
		c0.201,0,0.406-0.024,0.604-0.065l0.001,0.004l0.021-0.004c0.003-0.001,0.006-0.002,0.01-0.003
		c0.005-0.001,0.011-0.001,0.016-0.002l0.018-0.004v-0.005c0.229-0.049,0.44-0.116,0.654-0.217l0.019-0.009
		c0.112-0.055,0.173-0.086,0.28-0.15l0.018-0.012l0.034-0.021c0.013,0.008,0.021,0.013,0.035,0.021l0.018,0.012
		c0.106,0.064,0.22,0.125,0.333,0.176l0.02,0.008c0.199,0.09,0.369,0.146,0.58,0.193l0.019,0.004l0.062,0.014l0.021,0.004
		c0.174,0.035,0.412,0.059,0.589,0.059h0.018h0.021h0.02h70.205h0.021h0.02h0.02c0.217,0,0.404-0.02,0.617-0.064h0.002l0.007-0.002
		c0.274-0.055,0.502-0.133,0.754-0.258l0.018-0.008l0.224-0.125l0.018-0.011l0.035-0.022l0.035,0.022l0.018,0.011
		c0.105,0.065,0.167,0.099,0.28,0.151l0.019,0.009c0.228,0.107,0.422,0.173,0.666,0.225l0.02,0.004l0.029,0.006l0.02,0.004
		c0.174,0.035,0.412,0.06,0.589,0.06h0.019h0.021h0.021h70.193h0.012h0.01h0.021h0.019c0.177,0,0.414-0.022,0.588-0.06l0.02-0.004
		c0.123-0.023,0.242-0.056,0.36-0.096l0.018-0.006l0.166-0.061l0.021-0.008c0.115-0.047,0.232-0.103,0.343-0.164l0.019-0.01
		c0.051-0.027,0.092-0.067,0.141-0.099c0.05,0.03,0.095,0.071,0.145,0.099l0.018,0.01c0.109,0.062,0.179,0.096,0.293,0.144
		l0.02,0.008c0.115,0.049,0.143,0.06,0.262,0.097l0.019,0.006c0.119,0.037,0.163,0.049,0.285,0.074l0.019,0.004
		c0.213,0.045,0.401,0.064,0.618,0.064h0.019h0.021h0.021c0.789,0,1.562-0.32,2.121-0.879c0.545-0.546,0.858-1.297,0.873-2.068
		c0.149-0.104,0.293-0.217,0.422-0.346c0.56-0.559,0.88-1.331,0.88-2.121v-3.443v-0.377h5.562h0.409h0.409c0.001,0,0.002,0,0.002,0
		c0.001,0,0.002,0,0.003,0h48.847h0.007h0.403h0.408h5.562v0.377v3.443c0,0.79,0.318,1.562,0.879,2.121
		c0.134,0.133,0.279,0.251,0.435,0.355c0.019,0.768,0.33,1.515,0.873,2.058c0.56,0.56,1.331,0.879,2.121,0.879h0.021h0.021
		l0.157-0.004l0.019-0.001c0.178-0.01,0.287-0.023,0.461-0.061l0.02-0.004l0.146-0.035l0.019-0.004
		c0.12-0.033,0.285-0.088,0.399-0.138l0.02-0.008c0.115-0.048,0.293-0.14,0.4-0.205l0.018-0.011l0.043-0.028
		c0.047,0.028,0.089,0.065,0.136,0.093l0.019,0.01c0.108,0.062,0.124,0.068,0.238,0.119l0.018,0.008
		c0.114,0.051,0.237,0.098,0.355,0.132l0.021,0.006l0.244,0.062l0.019,0.004c0.212,0.045,0.401,0.064,0.618,0.064h0.019h0.021h0.021
		h70.186c0.007,0,0.013,0.002,0.02,0.002h0.021h0.021h0.019c0.217,0,0.405-0.02,0.618-0.064l0.019-0.004
		c0.122-0.024,0.166-0.037,0.285-0.074l0.019-0.006c0.119-0.037,0.146-0.047,0.262-0.097l0.019-0.008
		c0.115-0.048,0.185-0.081,0.293-0.144l0.019-0.01c0.049-0.026,0.094-0.065,0.143-0.097c0.049,0.03,0.094,0.069,0.144,0.097
		l0.018,0.01c0.109,0.062,0.179,0.096,0.293,0.144l0.02,0.008c0.114,0.049,0.142,0.06,0.261,0.097l0.02,0.006
		c0.118,0.037,0.162,0.049,0.284,0.074l0.02,0.004c0.213,0.045,0.399,0.064,0.618,0.064h0.018h0.021h0.02
		c0.007,0,0.013-0.002,0.02-0.002h70.168c0.008,0,0.014,0.002,0.021,0.002h0.021h0.021h0.019c0.218,0,0.405-0.02,0.618-0.064
		l0.02-0.004c0.122-0.024,0.166-0.037,0.284-0.074l0.02-0.006c0.119-0.037,0.146-0.047,0.261-0.097l0.02-0.008
		c0.114-0.048,0.184-0.081,0.293-0.144l0.018-0.01c0.05-0.026,0.095-0.065,0.144-0.097c0.049,0.03,0.094,0.069,0.143,0.097
		l0.019,0.01c0.108,0.062,0.178,0.096,0.293,0.144l0.019,0.008c0.115,0.049,0.143,0.06,0.262,0.097l0.019,0.006
		c0.119,0.037,0.163,0.049,0.285,0.074l0.019,0.004c0.213,0.045,0.4,0.064,0.618,0.064h0.019h0.021h0.021
		c0.007,0,0.013-0.002,0.02-0.002h70.186h0.021h0.021h0.019c0.217,0,0.405-0.02,0.618-0.064l0.019-0.004l0.02-0.004
		c0.245-0.051,0.438-0.117,0.666-0.225l0.019-0.009c0.113-0.054,0.174-0.086,0.28-0.151l0.019-0.011l0.034-0.022l0.035,0.022
		l0.019,0.011c0.105,0.065,0.166,0.099,0.279,0.151l0.02,0.009c0.227,0.107,0.42,0.173,0.666,0.225l0.019,0.004l0.02,0.004
		c0.213,0.045,0.399,0.064,0.618,0.064h0.019h0.021h0.021c0.79,0,1.562-0.32,2.121-0.879c0.458-0.458,0.744-1.062,0.837-1.699
		c0.24-0.134,0.469-0.288,0.664-0.484c0.559-0.559,0.879-1.33,0.879-2.121v-2.932v-0.206h3.598c0.52,0.894,1.477,1.501,2.584,1.501
		h51.331c1.108,0,2.065-0.607,2.585-1.501h4.782h3.274c1.655,0,3-1.343,3-3v-8.414c0.043-0.039,0.094-0.069,0.136-0.11
		c0.559-0.56,0.879-1.332,0.879-2.121v-0.021v-0.02l-0.004-0.158l-0.001-0.019c-0.008-0.125-0.018-0.213-0.037-0.336l-0.003-0.019
		c-0.021-0.123-0.062-0.291-0.1-0.41l-0.006-0.019c-0.037-0.119-0.068-0.201-0.119-0.315l-0.008-0.018
		c-0.051-0.113-0.06-0.129-0.119-0.238l-0.01-0.018c-0.006-0.012-0.017-0.025-0.022-0.037c0.565-0.546,0.92-1.309,0.92-2.156
		v-68.725c0-0.742-0.279-1.413-0.727-1.938c0.446-0.523,0.727-1.194,0.727-1.938c0,0,0,0,0-0.001v-68.842
		C2379.384,8338.198,2379.049,8337.45,2378.509,8336.907z M935.743,8290.497h1.218v1.217h-1.218V8290.497z M910.609,8297.715
		c-0.092,0.099-0.182,0.199-0.262,0.312l-0.324,0.455c-0.592,0.832-0.696,1.859-0.377,2.752c-0.282-0.086-0.573-0.146-0.871-0.146
		h-0.767c-0.334,0-0.661,0.067-0.975,0.177v-1.497c0-0.782-0.309-1.509-0.819-2.054L910.609,8297.715L910.609,8297.715z
		 M901.854,8297.715c-0.093,0.101-0.185,0.202-0.265,0.315l-0.323,0.455c-0.59,0.83-0.693,1.855-0.375,2.748
		c-0.283-0.086-0.574-0.146-0.872-0.146h-0.527c0.197-0.398,0.318-0.844,0.318-1.32c0-0.797-0.315-1.516-0.822-2.053
		L901.854,8297.715L901.854,8297.715z M362.787,8290.497v1.217h-1.217v-1.217H362.787z M366.662,8051.86l-0.63,0.474
		c-0.065,0.05-0.116,0.11-0.178,0.164v-11.438c0-0.388-0.079-0.754-0.212-1.094h0.145c0.308,0,0.598-0.06,0.875-0.145V8051.86z
		 M360.859,8014.823l17.126,17.125v11.408l-5.323,3.998v-11.957c0-0.197-0.021-0.395-0.059-0.588
		c-0.018-0.088-0.05-0.168-0.075-0.254c-0.03-0.103-0.054-0.207-0.095-0.307c-0.042-0.104-0.1-0.193-0.153-0.29
		c-0.042-0.075-0.073-0.153-0.123-0.226c-0.109-0.166-0.235-0.32-0.377-0.461l-12.178-12.178c-0.142-0.141-0.295-0.267-0.461-0.377
		c-0.07-0.047-0.146-0.078-0.219-0.119c-0.099-0.055-0.193-0.112-0.298-0.155c-0.097-0.04-0.198-0.063-0.299-0.093
		c-0.087-0.025-0.17-0.061-0.261-0.077c-0.192-0.039-0.389-0.06-0.586-0.06c0,0,0,0-0.001,0h-9.7
		c-0.578-0.891-1.237-1.721-1.979-2.467c-1.179-1.188-2.562-2.17-4.083-2.926h19.144V8014.823z M337.982,8019.739
		c1.352,0.472,2.562,1.236,3.559,2.235c1.002,1.013,1.766,2.243,2.228,3.614h-5.785L337.982,8019.739L337.982,8019.739z
		 M291.775,8035.872h43.197c0.003,0,0.006,0.002,0.01,0.002c1.657,0,3-1.344,3-3v-1.285h6.278v1.283c0,1.658,1.343,3,3,3h0.124
		v1.094c0,1.656,1.343,3,3,3h1.093v1.092c0,1.658,1.343,3,3,3h1.093v43.142h-63.795V8035.872L291.775,8035.872z M929.743,8472.26
		h-17.464c-1.656,0-3,1.343-3,3s1.344,3,3,3h17.464v6.47H892.47v-18.637v-1.42h0.029c0.377,0,0.734-0.091,1.075-0.223l0.244,0.078
		c0.293,0.094,0.609,0.144,0.917,0.144h0.37c0.295,0,0.597-0.048,0.88-0.135c0.27,0.079,0.549,0.135,0.844,0.135
		c0.377,0,0.733-0.077,1.066-0.204c0.333,0.128,0.691,0.205,1.069,0.205c0.329,0,0.639-0.064,0.935-0.163
		c0.257,0.069,0.52,0.12,0.789,0.12h0.398c0.388,0,0.763-0.082,1.112-0.223l0.377,0.121c0.293,0.094,0.609,0.144,0.917,0.144h0.711
		c0.309,0,0.624-0.05,0.917-0.144l0.276-0.09c0.355,0.149,0.746,0.232,1.156,0.232h0.541c0.79,0,1.562-0.32,2.121-0.879
		c0.051-0.051,0.089-0.111,0.136-0.166c0.295,1.346,1.492,2.354,2.926,2.354h17.464L929.743,8472.26L929.743,8472.26z
		 M892.469,8454.622v-1.555c0.27,0.551,0.7,1.002,1.233,1.3v0.539c-0.384-0.174-0.798-0.284-1.231-0.284H892.469L892.469,8454.622z
		 M910.002,8460.157h0.306c0.641,0,1.264-0.22,1.776-0.597c0.242,0.181,0.512,0.319,0.803,0.42h-0.606
		c-0.864,0-1.636,0.37-2.184,0.954v-0.073C910.095,8460.622,910.057,8460.389,910.002,8460.157z M915.818,8459.98
		c0.279-0.097,0.541-0.228,0.775-0.397c0.234,0.172,0.492,0.303,0.762,0.397H915.818z M920.108,8459.98
		c0.078-0.026,0.157-0.048,0.231-0.081c0.076-0.034,0.147-0.08,0.222-0.12c0.101-0.056,0.202-0.108,0.296-0.175
		c0.016-0.012,0.033-0.018,0.048-0.027l0.729-0.535c0.348,0.429,0.807,0.754,1.339,0.938H920.108z M1145.377,8056.27v166.617h-5.375
		c-1.657,0-3,1.343-3,3v2.935v1.092h-1.094c-1.656,0-3,1.344-3,3v4.094c0,1.656,1.344,3,3,3h1.094v4.217c0,1.656,1.343,3,3,3h1.093
		v37.272h-1.093c-1.657,0-3,1.343-3,3v4.218h-1.094c-1.656,0-3,1.343-3,3v4.093c0,1.657,1.344,3,3,3h1.094v1.093
		c0,1.657,1.343,3,3,3h1.093v73.109h-0.89c-0.197,0-0.395,0.021-0.588,0.061c-0.568,0.111-1.077,0.391-1.479,0.775h-51.369
		c-1.657,0-3,1.342-3,3c0,1.656,1.343,3,3,3h50.438v11.084v10.787h-11.819c-0.458-0.438-1.055-0.725-1.717-0.804
		c-0.646-0.646-1.566-0.998-2.539-0.86c-1.027,0.146-1.857,0.797-2.279,1.664h-12.521c-0.457-0.438-1.054-0.725-1.716-0.804
		c-0.644-0.646-1.565-0.998-2.539-0.86c-1.026,0.146-1.856,0.797-2.278,1.664h-6.169c-0.457-0.438-1.055-0.725-1.717-0.804
		c-0.644-0.646-1.565-0.998-2.538-0.86c-1.027,0.146-1.857,0.797-2.279,1.664H988.87c-0.404-0.205-0.854-0.33-1.34-0.33h-0.605
		c-0.199,0-0.396,0.021-0.591,0.061c-0.089,0.018-0.171,0.051-0.257,0.076c-0.101,0.029-0.203,0.053-0.301,0.093
		c-0.089,0.037-0.169,0.088-0.253,0.133c-0.088,0.046-0.178,0.086-0.261,0.142c-0.085,0.058-0.159,0.127-0.238,0.191
		c-0.071,0.059-0.146,0.109-0.213,0.176c-0.142,0.141-0.269,0.293-0.379,0.457l-8.513,12.65c-0.926,1.373-0.562,3.237,0.813,4.164
		c0.13,0.088,0.269,0.152,0.407,0.217c0.108,0.101,0.217,0.201,0.343,0.285c1.375,0.926,3.238,0.562,4.164-0.813l7.74-11.501
		h147.818v77.288c0,0.297,0.058,0.578,0.138,0.849v0.244h-1.094c-1.656,0-3,1.342-3,3v0.75H951.146v-1.092c0-1.658-1.343-3-3-3
		h-1.094v-1.094v-2.922c0-0.004,0.001-0.008,0.001-0.01c0-1.658-1.343-3-3-3h-1.095v-40.209h7.864h0.321l-0.039,0.224
		c-0.321,0.478-0.509,1.052-0.509,1.671c0,1.657,1.343,3,3,3h0.521c0.214,0,0.421-0.023,0.622-0.066
		c0.686,0.133,1.387,0.022,1.991-0.305c0.424,0.229,0.902,0.371,1.417,0.371h0.521c0.308,0,0.599-0.061,0.878-0.146
		c0.278,0.086,0.569,0.146,0.877,0.146h0.521c1.657,0,3-1.343,3-3c0-0.243-0.037-0.477-0.091-0.702l0.21-1.19h1.903
		c1.003,0,1.929-0.494,2.488-1.326l1.191-1.771l1.191-1.769c0.925-1.375,0.562-3.239-0.813-4.164
		c-1.374-0.926-3.237-0.562-4.164,0.812l-1.19,1.771l-0.301,0.445h-13.549h-15.146c-0.536,0-1.032,0.152-1.469,0.398
		c-0.435-0.246-0.931-0.397-1.466-0.397c-1.657,0-3,1.343-3,3v18.459h-4.814c1.174-0.407,2.021-1.511,2.021-2.823v-0.167
		c0.476-0.53,0.772-1.226,0.772-1.993s-0.297-1.462-0.772-1.993v-1.246c0-1.306-0.841-2.457-2.083-2.856
		c-1.171-0.375-2.435,0.008-3.213,0.941c-0.033-0.023-0.06-0.055-0.094-0.076l-0.773-0.512c-0.487-0.324-1.069-0.498-1.654-0.498
		h-0.773c-0.585,0-1.167,0.174-1.655,0.498l-0.38,0.25c-0.301-0.264-0.652-0.476-1.05-0.604c-1.242-0.4-2.595,0.046-3.356,1.105
		l-0.326,0.453c-0.6,0.834-0.706,1.871-0.383,2.771c-0.291-0.092-0.592-0.153-0.899-0.153h-0.773c-0.345,0-0.683,0.07-1.005,0.187
		v-1.506c0-1.306-0.84-2.457-2.083-2.856c-1.242-0.397-2.597,0.049-3.356,1.109l-0.324,0.454c-0.598,0.834-0.704,1.87-0.381,2.769
		c-0.291-0.094-0.593-0.155-0.901-0.155h-0.55c0.197-0.399,0.317-0.845,0.317-1.319c0-1.656-1.343-3-3-3h-3.093
		c-1.185,0-2.2,0.693-2.688,1.69v-2.994h10.936h13.936c0.791,0,1.562-0.319,2.121-0.879c0.56-0.56,0.879-1.331,0.879-2.121v-1.467
		v-1.468c0-0.79-0.319-1.562-0.879-2.121c-0.559-0.559-1.33-0.879-2.121-0.879h-15.402h-12.764
		c-0.487-0.341-1.077-0.545-1.718-0.545h-13.39c-1.657,0-3,1.343-3,3c0,0.094,0.019,0.182,0.027,0.273
		c-0.009,0.09-0.027,0.179-0.027,0.271c0,1.657,1.343,3,3,3h9.469v20.104v20.104h-5.376c-1.657,0-3,1.343-3,3v2.933v1.094h-1.093
		c-1.657,0-3,1.342-3,3v1.092h-24.805v-23.521v-27.806h4.699h7.701c1.657,0,3-1.342,3-3c0-1.656-1.343-3-3-3h-7.701h-7.699
		c-0.79,0-1.562,0.32-2.121,0.879c-0.56,0.56-0.879,1.332-0.879,2.121v30.806v23.521h-24.807v-51.326h3.234h9.168
		c1.657,0,3-1.342,3-3c0-1.656-1.343-3-3-3h-9.168h-9.167c-0.79,0-1.562,0.32-2.121,0.879c-0.56,0.56-0.879,1.332-0.879,2.121
		v30.806v23.521H769.25v-51.326h9.471h15.401c1.657,0,3-1.342,3-3c0-1.656-1.343-3-3-3H778.72h-15.402
		c-0.79,0-1.562,0.32-2.121,0.879c-0.559,0.56-0.879,1.332-0.879,2.121v30.806v23.521h-21.87v-17.041v-24.324
		c0-0.791-0.319-1.562-0.879-2.121c-0.559-0.56-1.331-0.879-2.121-0.879h-1.468h-1.468c-0.79,0-1.562,0.319-2.121,0.879
		c-0.56,0.559-0.879,1.33-0.879,2.121v24.324v17.041h-40.207v-1.092c0-1.658-1.343-3-3-3h-1.093v-1.094c0-1.656-1.344-3-3-3h-4.094
		c-0.461,0-0.893,0.112-1.283,0.299v-19.822v-23.617h18.638h21.637c1.657,0,3-1.342,3-3c0-1.656-1.343-3-3-3h-21.637h-21.636h-0.002
		h-1.466h-1.468c-0.79,0-1.562,0.32-2.121,0.879c-0.559,0.56-0.879,1.332-0.879,2.121v26.617v26.617v1.092h-37.273v-1.092v-50.233
		h9.47H655.5c1.657,0,3-1.343,3-3s-1.343-3-3-3h-15.401h-15.402c-0.79,0-1.562,0.319-2.121,0.879
		c-0.559,0.56-0.879,1.331-0.879,2.121v26.616v19.823c-0.391-0.187-0.823-0.299-1.284-0.299h-4.093c-1.657,0-3,1.343-3,3v1.093
		h-1.092c-1.657,0-3,1.343-3,3v1.093h-24.806v-51.326h9.47h15.401c1.657,0,3-1.343,3-3s-1.343-3-3-3H593.89h-15.402
		c-0.79,0-1.562,0.319-2.121,0.879c-0.559,0.56-0.879,1.331-0.879,2.121v30.806v23.521h-37.273v-51.326h24.872c1.656,0,3-1.343,3-3
		s-1.344-3-3-3h-30.806c-1.656,0-3,1.343-3,3v54.326h-37.273v-51.326h24.872c1.657,0,3-1.343,3-3s-1.343-3-3-3h-30.807
		c-1.657,0-3,1.343-3,3v54.326h-21.87v-51.326h9.469c1.656,0,3-1.343,3-3s-1.344-3-3-3h-15.402c-1.657,0-3,1.343-3,3v54.326h-24.805
		v-1.093c0-1.657-1.344-3-3-3h-1.094v-1.093v-2.933c0-1.658-1.343-3-3-3h-5.375v-40.209h24.87c1.657,0,3-1.342,3-3
		c0-1.656-1.343-3-3-3h-30.805c-1.657,0-3,1.344-3,3v18.461h-17.464c-1.657,0-3,1.342-3,3v0.545c0,1.658,1.343,3,3,3
		c0.64,0,1.23-0.203,1.718-0.545h15.746v6.277h-15.746c-0.487-0.342-1.078-0.546-1.718-0.546c-1.657,0-3,1.343-3,3v0.546v0.547
		c0,1.657,1.343,3,3,3c0.641,0,1.232-0.204,1.719-0.547h15.745v6.471h-37.274v-37.274h24.143c1.657,0,3-1.343,3-3
		c0-0.291-0.054-0.565-0.132-0.832c0.532-0.542,0.862-1.282,0.862-2.103c0-1.656-1.344-3-3-3h-58.678c-1.657,0-3,1.344-3,3
		c0,1.658,1.343,3,3,3h24.872v40.209h-5.377c-1.657,0-3,1.342-3,3v2.933v1.093h-1.093c-1.657,0-3,1.343-3,3v1.093H322.58v-54.326
		c0-1.657-1.343-3-3-3h-2.933c-1.657,0-3,1.343-3,3v54.326h-37.274v-51.326h11.5h13.371c1.657,0,3-1.343,3-3s-1.343-3-3-3h-13.371
		h-17.434h-12.688c-0.297-0.099-0.608-0.165-0.939-0.165h-0.897h-25.974v-28.068c0-1.656-1.343-3-3-3s-3,1.344-3,3v28.901
		c-0.573,0.547-0.935,1.312-0.935,2.167c0,1.657,1.344,3,3,3h2.946h26.909c0.297,0.1,0.609,0.165,0.94,0.165h10.637v51.326H165.623
		v-1.093c0-1.657-1.343-3-3-3h-1.093v-1.093c0-1.657-1.343-3-3-3h-1.093v-91.696h34.432c1.657,0,3-1.342,3-3
		c0-0.234-0.034-0.461-0.085-0.682c0.051-0.221,0.085-0.445,0.085-0.682c0-1.658-1.343-3-3-3h-34.432v-48.965h66.269l-0.074,35.387
		c-0.003,1.656,1.338,3.002,2.994,3.006c1.657,0.004,3.003-1.337,3.006-2.994l0.077-36.824c0.285-0.458,0.457-0.994,0.457-1.574
		c0-0.535-0.151-1.031-0.397-1.467c0.246-0.436,0.397-0.932,0.397-1.466c0-0.569-0.168-1.099-0.443-1.552l0.007-3.58
		c0.003-1.656-1.337-3.002-2.994-3.006s-3.003,1.337-3.006,2.994l-0.004,2.145h-66.288V8305.9h1.093c1.657,0,3-1.343,3-3v-1.093
		h1.093c1.657,0,3-1.343,3-3v-4.093c0-0.462-0.112-0.894-0.299-1.284h58.842v24.871c0,1.657,1.344,3,3,3c1.657,0,3-1.343,3-3
		v-30.805c0-1.658-1.343-3-3-3H158.53h-1.093v-37.273h1.093h65.636v24.871c0,1.657,1.344,3,3,3c1.657,0,3-1.343,3-3v-30.805
		c0-1.658-1.343-3-3-3h-61.841c0.187-0.392,0.298-0.822,0.298-1.283v-4.094c0-1.656-1.343-3-3-3h-1.093v-1.092c0-1.658-1.343-3-3-3
		h-1.093v-24.806h66.729v24.871c0,1.657,1.344,3,3,3c1.657,0,3-1.343,3-3v-58.677c0-1.657-1.343-3-3-3c-1.656,0-3,1.343-3,3v24.872
		h-66.729v-37.272h66.729v0.123c0,1.658,1.344,3,3,3c1.657,0,3-1.342,3-3v-0.123h3.851c1.656,0,3-1.344,3-3
		c0-0.383-0.078-0.744-0.208-1.08c0.405-0.512,0.658-1.149,0.658-1.854c0-1.657-1.344-3-3-3h-4.301v-27.826c0-1.657-1.343-3-3-3
		c-0.421,0-0.821,0.089-1.186,0.245c-0.493-0.354-1.094-0.569-1.748-0.569c-1.657,0-3,1.342-3,3v28.15h-63.795v-52.677h22.266
		c1.657,0,3-1.343,3-3c0-0.804-0.321-1.53-0.835-2.069c0.083-0.274,0.142-0.561,0.142-0.862c0-1.657-1.344-3-3-3h-21.571v-40.208
		h1.093c1.657,0,3-1.343,3-3v-1.093h1.093c1.657,0,3-1.343,3-3v-1.093h55.609v35.412c0,1.657,1.343,3,3,3
		c0.536,0,1.031-0.152,1.467-0.398c0.437,0.246,0.931,0.398,1.467,0.398c1.657,0,3-1.343,3-3v-35.412h52.677v36.754
		c0,1.635,1.309,2.957,2.934,2.993v8.653c-1.625,0.035-2.934,1.357-2.934,2.992v4.312c0,1.657,1.343,3,3,3
		c0.429,0,0.835-0.094,1.204-0.256c0.489,0.348,1.083,0.555,1.729,0.555c1.18,0,2.191-0.688,2.681-1.679h64.114v52.677h-63.795
		v-38.895c0-1.658-1.343-3-3-3c-0.536,0-1.031,0.151-1.467,0.397c-0.437-0.246-0.932-0.397-1.467-0.397c-1.657,0-3,1.342-3,3v38.895
		h-36.555c-1.657,0-3,1.343-3,3c0,0.536,0.152,1.031,0.398,1.467c-0.246,0.436-0.398,0.932-0.398,1.467c0,1.657,1.343,3,3,3h5.749
		v40.273c0,1.656,1.343,3,3,3s3-1.344,3-3v-40.273h97.533v54.143h-97.967c-0.524-0.875-1.473-1.467-2.566-1.467
		c-1.657,0-3,1.344-3,3v46.207c0,1.658,1.343,3,3,3s3-1.342,3-3v-41.74h97.533v10.869h-1.093c-1.657,0-3,1.344-3,3v1.094h-1.093
		c-1.657,0-3,1.342-3,3v4.092c0,1.658,1.343,3,3,3h1.093v4.217c0,1.658,1.343,3,3,3h1.093v21.871H255.037c-1.657,0-3,1.344-3,3
		v15.402v30.805c0,1.658,1.343,3,3,3s3-1.342,3-3v-30.805v-9.469h97.533v6.469h-1.093c-1.657,0-3,1.343-3,3v4.218h-1.093
		c-1.657,0-3,1.343-3,3v4.093c0,1.657,1.343,3,3,3h1.093v1.093c0,1.657,1.343,3,3,3h1.093v24.806H255.047
		c-0.003,0-0.006-0.002-0.01-0.002c-1.657,0-3,1.344-3,3v15.403c0,1.657,1.343,3,3,3s3-1.343,3-3v-9.47h97.533v39.771h-11.598
		c-1.657,0-3,1.343-3,3v28.241h-82.937v-46.141c0-1.658-1.343-3-3-3s-3,1.342-3,3v49.141c0,1.657,1.343,3,3,3h107.817
		c1.657,0,3-1.343,3-3s-1.343-3-3-3h-15.882v-25.241h10.06c0.451,0.271,0.973,0.437,1.538,0.437h1.273v15.154c0,1.657,1.343,3,3,3
		s3-1.343,3-3v-15.154h1.417c1.094,0,2.042-0.592,2.565-1.467h16.485c1.657,0,3-1.342,3-3c0-1.656-1.343-3-3-3h-17.524v-79.57
		v-1.093h37.274v1.093v79.751c-1.169,0.409-2.013,1.511-2.013,2.819v1.467c0,1.311,0.844,2.412,2.013,2.82v27.984
		c0,1.656,1.343,3,3,3h108.804c1.657,0,3-1.344,3-3c0-1.658-1.343-3-3-3h-91.646v-8.006c0-1.656-1.344-3-3-3
		c-0.226,0-0.441,0.029-0.652,0.076c-0.21-0.047-0.427-0.076-0.652-0.076c-1.656,0-3,1.344-3,3v8.006h-6.854v-24.806h4.217h2.637
		v5.204c0,1.657,1.344,3,3,3c0.179,0,0.351-0.021,0.52-0.053c0.252,0.067,0.511,0.117,0.785,0.117c1.656,0,3-1.344,3-3v-9.572
		c0-1.657-1.344-3-3-3h-3.94v-72.643h1.093c1.657,0,3-1.342,3-3v-1.092h1.094c1.656,0,3-1.344,3-3v-1.094h181.763v1.094
		c0,1.656,1.343,3,3,3h1.092v1.092c0,1.658,1.343,3,3,3h4.093c1.657,0,3-1.342,3-3v-1.092h4.219c1.656,0,3-1.344,3-3v-1.094h24.805
		v113.64c-0.662,0.55-1.092,1.369-1.092,2.297c0,1.657,1.343,3,3,3h20.55c1.657,0,3-1.343,3-3s-1.343-3-3-3h-16.458v-112.937h6.469
		v1.094c0,1.656,1.344,3,3,3h4.217v1.092c0,1.658,1.344,3,3,3h4.094c1.656,0,3-1.342,3-3v-1.092h1.093c1.657,0,3-1.344,3-3v-1.094
		h40.207v56.469v56.467h-36.226c-1.656,0-3,1.344-3,3c0,1.658,1.344,3,3,3h39.226c0.003,0,0.006,0,0.01,0h0.484h0.494
		c1.656,0,3-1.344,3-3c0-0.881-0.386-1.664-0.988-2.213v-57.254v-56.469h86.415v112.937h-32.573H750.85c-1.657,0-3,1.343-3,3
		s1.343,3,3,3h38.506h38.506c0.79,0,1.562-0.319,2.121-0.879c0.56-0.56,0.879-1.331,0.879-2.121v-61.61v-54.324h40.208v1.092
		c0,1.658,1.344,3,3,3h1.094v1.094c0,1.656,1.343,3,3,3h1.092v36.973v39.973c0,0.791,0.319,1.562,0.879,2.121
		c0.559,0.56,1.331,0.879,2.121,0.879h2.143h2.075v12.402v12.402h-20.104h-20.104v-6.437v-9.437c0-1.658-1.343-3-3-3s-3,1.342-3,3
		v9.437v9.437c0,0.789,0.32,1.562,0.879,2.121c0.559,0.559,1.331,0.879,2.121,0.879h23.104h23.104c0.79,0,1.562-0.32,2.121-0.879
		c0.559-0.56,0.879-1.332,0.879-2.121v-15.402v-12.58c1.172-0.408,2.019-1.512,2.019-2.822v-1.467c0-1.312-0.847-2.414-2.019-2.821
		v-72.364c0.42,1.149,1.514,1.976,2.809,1.976c0.767,0,1.457-0.296,1.987-0.769c0.53,0.473,1.222,0.769,1.987,0.769h0.767
		c0.635,0,1.253-0.215,1.764-0.587c0.498,0.363,1.104,0.587,1.769,0.587h0.968c0.653,0,1.252-0.214,1.745-0.567
		c0.493,0.354,1.092,0.567,1.745,0.567h0.767c0.636,0,1.253-0.215,1.764-0.586c0.497,0.364,1.104,0.586,1.767,0.586h0.968
		c0.651,0,1.25-0.213,1.742-0.565c0.508,0.363,1.123,0.565,1.748,0.565h0.767c0.022,0,0.043-0.006,0.064-0.007
		c0.111-0.002,0.223-0.02,0.333-0.033c0.086-0.012,0.174-0.018,0.258-0.036c0.095-0.021,0.188-0.058,0.281-0.088
		s0.19-0.058,0.28-0.099c0.078-0.035,0.15-0.08,0.227-0.123c0.055-0.029,0.111-0.056,0.164-0.088
		c0.479,0.303,1.034,0.475,1.603,0.475h1.572c0.601,0,1.167-0.172,1.666-0.505l0.768-0.513c0.834-0.557,1.334-1.492,1.334-2.494
		v-1.649c0-0.188-0.031-0.373-0.065-0.556c0.031-0.172,0.065-0.346,0.065-0.523v-1.648c0-1.002-0.499-1.937-1.332-2.494
		l-0.105-0.069h5.103v1.093v79.57h-17.52c-1.656,0-3,1.344-3,3v1.398c-0.019-0.006-0.035-0.016-0.053-0.021
		c-1.243-0.396-2.602,0.059-3.357,1.121l-0.322,0.455c-0.59,0.83-0.693,1.856-0.375,2.75c-0.283-0.088-0.574-0.146-0.872-0.146
		h-0.526c0.197-0.4,0.318-0.844,0.318-1.32c0-1.656-1.343-3-3-3h-3.065c-1.657,0-3,1.344-3,3c0,1.121,0.622,2.088,1.533,2.603v2.799
		c0,1.657,1.343,3,3,3c0.767,0,1.457-0.296,1.987-0.769c0.529,0.473,1.222,0.769,1.986,0.769h0.767c0.635,0,1.253-0.215,1.764-0.587
		c0.497,0.363,1.104,0.587,1.769,0.587h0.968c0.653,0,1.252-0.214,1.745-0.567c0.492,0.354,1.092,0.567,1.745,0.567H913
		c0.636,0,1.254-0.215,1.765-0.587c0.497,0.363,1.104,0.587,1.768,0.587h0.968c0.651,0,1.25-0.213,1.742-0.565
		c0.508,0.364,1.122,0.565,1.748,0.565h0.768c0.021,0,0.042-0.006,0.063-0.007c0.111-0.002,0.222-0.02,0.333-0.033
		c0.086-0.012,0.174-0.018,0.258-0.036c0.096-0.021,0.188-0.058,0.281-0.088s0.19-0.058,0.28-0.099
		c0.078-0.035,0.151-0.08,0.227-0.123c0.1-0.055,0.198-0.106,0.289-0.172c0.019-0.013,0.038-0.021,0.056-0.033l0.019-0.014
		l0.019,0.014c0.516,0.383,1.146,0.59,1.787,0.59h0.768c0.021,0,0.042-0.006,0.063-0.006c0.111-0.002,0.223-0.02,0.333-0.033
		c0.086-0.013,0.174-0.019,0.258-0.037c0.096-0.021,0.188-0.057,0.281-0.088c0.094-0.03,0.19-0.058,0.28-0.098
		c0.078-0.035,0.151-0.081,0.228-0.123c0.099-0.055,0.197-0.107,0.289-0.172c0.018-0.014,0.037-0.021,0.055-0.033l0.767-0.568
		c0.503-0.373,0.864-0.893,1.056-1.484v19.346v2.934c0,0.001,0,0.001,0,0.001c0,1.657,1.344,3,3,3h7.218c1.657,0,3-1.343,3-3
		c0,0,0,0,0-0.001v-2.934c0-1.656-1.343-3-3-3h-1.209v-21.871h1.209h0.599h14.021h14.618c1.657,0,3-1.342,3-3c0-1.656-1.343-3-3-3
		h-14.618h-11.622v-36.973v-36.973h1.093c1.657,0,3-1.344,3-3v-1.094h1.094c1.657,0,3-1.342,3-3v-1.092h16.781h16.78v10.013v19.965
		c-0.703,0.549-1.163,1.396-1.163,2.356s0.46,1.808,1.163,2.355v6.375v41.709c-0.703,0.549-1.163,1.395-1.163,2.355
		c0,1.658,1.343,3,3,3h0.581h0.582c0.791,0,1.562-0.319,2.121-0.879c0.56-0.559,0.879-1.33,0.879-2.121v-44.064v-8.73v-22.321
		v-13.013v-9.309c0-1.657-1.343-3-3-3c-1.656,0-3,1.343-3,3v6.309h-16.78h-19.781h-1.094v-4.219c0-1.656-1.343-3-3-3h-1.093v-37.272
		h1.093c1.417,0,2.598-0.985,2.912-2.308h18.917h18.828v12.605v15.605c0,1.656,1.343,3,3,3c1.656,0,3-1.344,3-3v-15.605v-15.605
		c0-0.789-0.32-1.562-0.88-2.121c-0.559-0.559-1.331-0.879-2.12-0.879h-21.828h-15.438c0.433-0.521,0.704-1.18,0.704-1.91v-4.092
		c0-1.658-1.343-3-3-3h-1.094v-1.094c0-1.656-1.344-3-3-3h-1.094v-181.766h1.094c1.656,0,3-1.343,3-3v-1.093h1.094
		c1.657,0,3-1.343,3-3v-1.093h181.762v1.093c0,1.657,1.344,3,3,3h1.094v1.093v2.934c0,1.658,1.343,3,3,3h5.865
		c0.536,0.82,1.458,1.364,2.51,1.364h0.738c0.027,0.021,0.055,0.038,0.082,0.058v4.801c-0.027,0.019-0.055,0.037-0.082,0.057h-0.738
		C1146.72,8053.27,1145.377,8054.612,1145.377,8056.27z M913.873,8387.081c-0.283-0.088-0.574-0.146-0.873-0.146h-0.767
		c-0.334,0-0.661,0.068-0.974,0.177v-1.438c0.304,0.104,0.625,0.174,0.965,0.174h1.486
		C913.68,8386.266,913.731,8386.685,913.873,8387.081z M1151.377,8331.534h106.612c0,0.022-0.007,0.045-0.007,0.068
		s0.007,0.046,0.007,0.068h-106.612V8331.534z M1250.137,8337.673v37.324h-2.186v-37.324H1250.137z M1241.953,8337.673v37.324
		h-0.002h-2.184v-37.324H1241.953z M1233.767,8337.673v37.324h-2.186v-37.324H1233.767z M1225.582,8337.673v37.324h-2.186v-37.324
		H1225.582z M1217.396,8337.673v37.324h-2.186v-37.324H1217.396z M1209.211,8337.673v37.324h-2.186v-37.324H1209.211z
		 M1201.025,8337.673v37.324h-2.186v-37.324H1201.025z M1192.84,8337.673v37.324h-2.186v-37.324H1192.84z M1184.654,8337.673v37.324
		h-2.186v-37.324H1184.654z M1176.469,8337.673v37.324h-2.187v-37.324H1176.469z M1168.283,8337.673v37.324h-2.186v-37.324H1168.283
		z M1160.097,8337.673v37.324h-2.186v-37.324H1160.097z M1151.377,8337.673h0.535v37.324h-0.535V8337.673z M1487.461,8556.239v1.094
		h-15.586h-15.588v-1.094v-1.092h15.588h15.586V8556.239z M1486.271,8549.146h-14.396h-1.914l2.893-42.935h15.537
		c0.001,0,0.001,0,0.001,0h0.021h0.021h0.019c0.205,0,0.385-0.021,0.584-0.061L1486.271,8549.146z M1597.627,8555.146v1.092v1.095
		h-15.586h-15.587v-1.095v-1.092h15.587H1597.627z M1564.881,8506.153c0.199,0.039,0.381,0.061,0.586,0.061h0.019h0.021h0.021
		h15.496l2.892,42.934h-1.871h-14.398L1564.881,8506.153z M1596.67,8462.124h-1.5v-22.649h1.5V8462.124z M2075.661,8441.37v3.504
		c-0.753,0.545-1.248,1.426-1.248,2.426c0,0,0,0,0,0.002v39.707c-0.922,0.151-1.692,0.724-2.129,1.514h-2.226
		c-0.497-0.968-1.495-1.637-2.658-1.637h-49.533c-1.162,0-2.16,0.668-2.658,1.637h-2.227c-0.51-0.927-1.482-1.562-2.615-1.562
		v-34.25h15.949c1.657,0,3-1.344,3-3v-2.594c0-1.656-1.343-3-3-3h-18.257v-12.889c5.892-1.402,10.371-6.51,10.751-12.793
		c0.002-0.029-0.005-0.059-0.003-0.088c0-0.031,0.009-0.062,0.009-0.093v-0.341v-0.341c0-0.931-0.432-1.751-1.098-2.301l9.146,3.825
		c0.005,0.002,0.008,0.005,0.014,0.007c0.002,0.001,0.002,0.001,0.004,0.002l0.621,0.26h0.002l0,0l13.836,5.786
		c0.002,0.001,0.006,0.004,0.008,0.005c0.004,0.001,0.008,0.002,0.011,0.003l0.621,0.26l7.542,3.154
		c0.003,0,0.005,0.002,0.007,0.004c0.001,0,0.002,0,0.004,0l15.101,6.317c0.002,0,0.004,0.001,0.004,0.001l9.883,4.133
		c0.187,0.08,0.383,0.143,0.587,0.182c0.185,0.037,0.37,0.055,0.554,0.057L2075.661,8441.37L2075.661,8441.37z M2369.42,8489.436
		h-4.366h-0.409h-0.409h-51.331h-0.408h-0.409h-6.55h-0.408h-0.409h-0.001v-37.778c0.094-0.293,0.156-0.597,0.156-0.905v-1.384
		v-1.385c0-0.32-0.063-0.623-0.156-0.912v-14.844c5.823-1.449,10.237-6.523,10.613-12.76c0.002-0.028-0.005-0.058-0.003-0.086
		c0-0.031,0.009-0.062,0.009-0.094v-0.34v-0.342c0-1.658-1.343-3-3-3h-5.446h-2.173v-0.553h29.582c0.336,0,0.653-0.066,0.955-0.17
		c0.302,0.104,0.619,0.17,0.955,0.17l31.159-0.002l0.001,13.51c0,0.336,0.066,0.652,0.17,0.955c-0.104,0.301-0.17,0.619-0.17,0.955
		l0.004,53.778c0,1.321,0.859,2.433,2.047,2.831v2.354H2369.42z M2369.42,8332.47c-0.875,0.523-1.468,1.473-1.468,2.566v69.828
		c-0.428-0.233-0.911-0.379-1.434-0.379h-68.417c-1.657,0-3,1.342-3,3v0.055c-1.151,0.419-1.979,1.514-1.979,2.811
		c0,0.059,0.015,0.112,0.018,0.17c-0.003,0.058-0.018,0.111-0.018,0.17c0,0.235,0.034,0.463,0.085,0.683
		c-0.051,0.222-0.085,0.446-0.085,0.683c0,0.06,0.015,0.113,0.018,0.172c-0.003,0.057-0.018,0.11-0.018,0.17
		c0,1.297,0.827,2.391,1.979,2.81v2.72c0,1.658,1.343,3,3,3h0.098c0.377,0.306,0.816,0.525,1.29,0.623
		c0.541,0.467,1.236,0.742,1.954,0.742h5.446h1.575c-1.323,2.574-3.987,4.336-7.055,4.367h-0.648h-0.684
		c-0.686,0-1.35,0.254-1.88,0.683h-0.098c-1.657,0-3,1.343-3,3v0.885h-9.961h-42.838c-1.657,0-3,1.343-3,3v2.047
		c0,1.657,1.343,3,3,3h52.799v56.756h-14.146c-0.003,0-0.008-0.001-0.01-0.001h-0.408h-0.41c-0.003,0-0.007,0.001-0.01,0.001
		h-16.044c-0.004,0-0.007-0.001-0.011-0.001h-0.408h-0.41c-0.003,0-0.007,0.001-0.01,0.001h-16.044
		c-0.004,0-0.007-0.001-0.011-0.001h-0.408h-0.41c-0.003,0-0.007,0.001-0.01,0.001h-15.51v-56.925
		c1.187-0.398,2.047-1.509,2.047-2.831v-2.047c0-1.657-1.344-3-3-3h-24.42c-1.657,0-3,1.343-3,3v2.047c0,1.657,1.343,3,3,3h17.326
		v56.756h-15.511c-0.003,0-0.007-0.001-0.01-0.001h-0.408h-0.409c-0.004,0-0.008,0.001-0.011,0.001h-12.438v-56.926
		c1.187-0.399,2.046-1.509,2.046-2.83v-2.047c0-1.657-1.345-3-3-3h-6.14c-1.656,0-3,1.343-3,3v2.047
		c0,1.321,0.859,2.431,2.047,2.831v56.925h-12.44c-0.004,0-0.006-0.001-0.01-0.001h-0.409h-0.409c-0.004,0-0.006,0.001-0.01,0.001
		h-15.511v-56.756h17.328c1.656,0,3-1.343,3-3v-2.047c0-1.657-1.344-3-3-3h-42.701c-1.657,0-3,1.343-3,3v2.047c0,1.657,1.343,3,3,3
		h17.328v56.756h-15.512c-0.004,0-0.006-0.001-0.01-0.001h-0.409h-0.409c-0.004,0-0.006,0.001-0.01,0.001h-12.439v-56.926
		c1.187-0.399,2.046-1.509,2.046-2.83v-2.047c0-1.657-1.345-3-3-3h-6.14c-1.656,0-3,1.343-3,3v2.047
		c0,1.321,0.859,2.431,2.047,2.831v56.925h-12.439c-0.003,0-0.007-0.001-0.01-0.001h-0.41h-0.409c-0.004,0-0.006,0.001-0.01,0.001
		h-14.466v-48.726c0-1.002-0.495-1.883-1.249-2.428v-3.504v-2.1h17.532c1.656,0,3-1.343,3-3v-2.047c0-1.657-1.344-3-3-3h-24.121
		l-8.971-3.751l-0.611-0.256c-0.008-0.003-0.012-0.007-0.019-0.01c-0.006-0.003-0.013-0.003-0.019-0.006l-13.822-5.78
		c-0.001-0.002-0.002-0.002-0.003-0.002s-0.002-0.002-0.003-0.002l-0.621-0.26c-0.002,0-0.003-0.002-0.004-0.002l-7.553-3.158
		l-0.627-0.264c-0.002,0-0.002,0-0.002,0l0,0l-13.843-5.79c-0.001,0-0.002-0.001-0.002-0.001s-0.001,0-0.002-0.001l-0.625-0.261
		c-0.002-0.002-0.003-0.002-0.005-0.004c-0.005-0.002-0.009-0.002-0.014-0.004l-16.776-7.019c-0.003-0.001-0.006-0.003-0.01-0.004
		l-0.004-0.002c-0.023-0.01-0.048-0.013-0.072-0.021c-0.159-0.062-0.323-0.117-0.495-0.151c-0.191-0.039-0.384-0.058-0.574-0.058
		c-0.006,0-0.011-0.002-0.017-0.002h-0.001c-0.006,0-0.013,0-0.02,0h-8.576c-1.656,0-3,1.342-3,3v9.473
		c0,0.324,0.064,0.631,0.16,0.924c0.06,0.703,0.354,1.378,0.854,1.879c0.418,0.418,0.956,0.703,1.532,0.818
		c0.542,0.467,1.236,0.742,1.953,0.742h5.447h1.574c-1.322,2.576-3.986,4.336-7.054,4.369h-0.65h-0.683
		c-0.79,0-1.562,0.319-2.121,0.879c-0.501,0.5-0.796,1.176-0.854,1.879c-0.097,0.293-0.16,0.601-0.16,0.924v1.92h-9.961h-6.004
		c-1.656,0-3,1.342-3,3v2.047c0,1.656,1.344,3,3,3h1.91h14.055v56.756h-14.146c-0.003,0-0.007-0.002-0.01-0.002h-0.41h-0.409
		c-0.003,0-0.007,0.002-0.01,0.002h-12.44v-56.926c1.188-0.398,2.047-1.508,2.047-2.83v-2.047c0-1.658-1.343-3-3-3h-6.139
		c-1.656,0-3,1.342-3,3v2.047c0,1.32,0.859,2.431,2.046,2.83v56.926h-12.439c-0.003,0-0.007-0.002-0.011-0.002h-0.408h-0.409
		c-0.003,0-0.007,0.002-0.011,0.002h-15.51v-56.756h17.327c1.656,0,3-1.344,3-3v-2.047c0-1.658-1.344-3-3-3h-24.522
		c-1.656,0-3,1.342-3,3v2.047c0,1.358,0.91,2.494,2.148,2.861v56.895h-15.51c-0.003,0-0.007-0.002-0.01-0.002h-0.409h-0.409
		c-0.003,0-0.007,0.002-0.01,0.002h-16.045c-0.004,0-0.008-0.002-0.011-0.002h-0.409h-0.408c-0.004,0-0.008,0.002-0.011,0.002
		h-16.045c-0.003,0-0.007-0.002-0.01-0.002h-0.409h-0.409c-0.003,0-0.007,0.002-0.01,0.002h-16.795
		c-0.003,0-0.007-0.002-0.011-0.002h-0.408h-0.409c-0.003,0-0.007,0.002-0.011,0.002h-3.801c-0.003,0-0.007-0.002-0.01-0.002h-0.408
		h-0.41c-0.003,0-0.007,0.002-0.01,0.002h-16.795c-0.003,0-0.007-0.002-0.01-0.002h-0.409h-0.409c-0.003,0-0.007,0.002-0.01,0.002
		h-12.44v-56.756h85.302c1.655,0,3-1.344,3-3v-2.047c0-1.658-1.345-3-3-3h-178.72c-1.657,0-3,1.342-3,3v2.047c0,1.656,1.343,3,3,3
		h85.372v56.756h-12.441c-0.002,0-0.006-0.002-0.01-0.002h-0.408h-0.41c-0.002,0-0.006,0.002-0.01,0.002h-16.795
		c-0.003,0-0.007-0.002-0.01-0.002h-0.408h-0.41c-0.003,0-0.007,0.002-0.01,0.002h-3.639c-0.027,0-0.053,0.008-0.08,0.008
		c-0.03-0.002-0.061-0.01-0.091-0.01h-0.409h-0.41c-0.003,0-0.007,0.002-0.01,0.002h-16.795c-0.004,0-0.008-0.002-0.01-0.002h-0.41
		h-0.408c-0.004,0-0.008,0.002-0.01,0.002h-16.045c-0.003,0-0.007-0.002-0.01-0.002h-0.409h-0.409c-0.004,0-0.008,0.002-0.011,0.002
		h-16.044c-0.003,0-0.007-0.002-0.01-0.002h-0.409h-0.409c-0.003,0-0.007,0.002-0.01,0.002h-15.512v-56.916
		c1.203-0.391,2.078-1.508,2.078-2.84v-2.047c0-1.658-1.343-3-3-3h-6.465c-1.656,0-3,1.342-3,3v2.047
		c0,1.43,1.002,2.621,2.342,2.922v56.834h-15.511c-0.003,0-0.007-0.002-0.01-0.002h-0.409h-0.41c-0.003,0-0.007,0.002-0.01,0.002
		h-12.439v-56.756h17.033c1.657,0,3-1.344,3-3v-2.047c0-1.658-1.343-3-3-3h-42.375c-1.656,0-3,1.342-3,3v2.047c0,1.656,1.344,3,3,3
		h17.295v56.756h-12.439c-0.003,0-0.007-0.002-0.01-0.002h-0.409h-0.409c-0.003,0-0.007,0.002-0.01,0.002h-15.51v-56.916
		c1.201-0.391,2.077-1.508,2.077-2.84v-2.047c0-1.658-1.344-3-3-3h-6.465c-1.657,0-3,1.342-3,3v2.047c0,1.43,1.001,2.619,2.34,2.922
		v56.834h-15.51c-0.003,0-0.007-0.002-0.01-0.002h-0.409h-0.409c-0.003,0-0.007,0.002-0.01,0.002h-12.513v-56.756h17.104
		c1.657,0,3-1.344,3-3v-2.047c0-1.658-1.343-3-3-3h-60.279c-1.657,0-3,1.342-3,3v10.437c0,1.657,1.343,3,3,3
		c0.06,0,0.113-0.015,0.171-0.019c0.059,0.004,0.112,0.019,0.172,0.019h1.91c1.656,0,3-1.343,3-3v-5.187h20.603v22.649h-20.603
		v-5.187c0-1.656-1.344-3-3-3h-1.91c-0.06,0-0.113,0.015-0.172,0.019c-0.058-0.004-0.111-0.019-0.171-0.019c-1.657,0-3,1.344-3,3
		v22.92c0,1.658,1.343,3,3,3c0.06,0,0.113-0.014,0.171-0.018c0.059,0.004,0.112,0.018,0.172,0.018h1.91
		c0.047,0,0.09-0.012,0.135-0.014c0.048,0.002,0.091,0.014,0.138,0.014c1.655,0,3-1.342,3-3v-5.186h10.741
		c0.119,1.014,0.69,1.908,1.543,2.445c0.01,0.006,0.017,0.014,0.024,0.02c0.028,0.02,0.062,0.027,0.091,0.047
		c0.072,0.041,0.143,0.088,0.219,0.124c0.027,0.015,0.058,0.019,0.087,0.03c0.358,0.193,0.735,0.347,1.128,0.463
		c0.055,0.021,0.115,0.03,0.172,0.051c0.121,0.03,0.236,0.08,0.359,0.104c0.011,0.002,0.021,0.001,0.031,0.003
		c0.012,0.002,0.021,0.008,0.034,0.01c0.571,0.1,1.155,0.157,1.747,0.169c0.021,0,0.04-0.005,0.061-0.005
		c0.021,0,0.041,0.005,0.062,0.005c0.591-0.013,1.176-0.069,1.747-0.169c0.013-0.002,0.024-0.008,0.037-0.012
		c0.012-0.002,0.022,0,0.034-0.002c0.131-0.026,0.255-0.08,0.385-0.113c0.046-0.016,0.095-0.023,0.139-0.041
		c0.178-0.053,0.357-0.089,0.529-0.156c-0.045,0.248-0.072,0.498-0.077,0.75c0,0.006-0.002,0.01-0.002,0.017v0.022
		c0,0.008-0.002,0.018-0.002,0.024v0.005c0,0.004,0,0.02,0,0.027v0.024c0,0.008,0.002,0.017,0.002,0.024
		c0,0.033,0.002,0.078,0.005,0.136c0.002,0.011,0.004,0.021,0.006,0.03c0.028,0.701,0.209,1.397,0.555,2.029
		c-0.098,0.077-0.201,0.15-0.288,0.238c-0.442,0.439-0.759,1.028-0.884,1.681c-0.04,0.194-0.062,0.397-0.062,0.606
		c0,0.207,0.021,0.41,0.062,0.605c0.125,0.652,0.443,1.246,0.891,1.688c0.441,0.442,1.029,0.758,1.68,0.883
		c0.195,0.041,0.398,0.062,0.606,0.062h6.331c0.165,0.428,0.409,0.816,0.725,1.129c0.197,0.2,0.435,0.361,0.684,0.506v7.891h-12.165
		c-0.003,0-0.007-0.002-0.011-0.002h-0.408h-0.409c-0.003,0-0.007,0.002-0.011,0.002h-0.535h-3.545h-12.315v-2.39
		c0-1.657-1.344-3-3-3c-0.047,0-0.09,0.013-0.137,0.015c-0.046-0.002-0.089-0.015-0.136-0.015h-1.91
		c-0.06,0-0.113,0.015-0.172,0.019c-0.058-0.004-0.111-0.019-0.17-0.019c-1.658,0-3,1.343-3,3v3.11h-46.569c-1.657,0-3,1.344-3,3
		c0,1.658,1.343,3,3,3h45.52v0.125v0.34c0,0.567,0.171,1.123,0.472,1.6l2.916,45.398c-0.183,0.392-0.287,0.817-0.287,1.254v0.34
		v0.342v4.092v4.095v0.341v0.341c0,0.47,0.125,0.925,0.332,1.341v15.646h-67.698v-15.57c0.233-0.436,0.373-0.919,0.373-1.416v-0.341
		v-0.341v-4.094v-4.092v-0.342v-0.342c0-0.437-0.106-0.862-0.288-1.256l2.917-45.396c0.3-0.478,0.471-1.03,0.471-1.599v-0.34v-0.342
		c0-0.002,0-0.002,0-0.004c1.103-0.443,1.882-1.52,1.882-2.779c0-1.634-1.308-2.956-2.933-2.993v-3.118c0-1.657-1.343-3-3-3h-0.341
		h-1.91h-0.271c-1.657,0-3,1.343-3,3v2.389h-16.396c-0.003,0-0.007,0-0.01,0h-0.41h-0.408c-0.003,0-0.007,0-0.01,0h-12.168v-21.371
		c0.031-0.026,0.059-0.059,0.089-0.086c0.069-0.066,0.133-0.14,0.197-0.213c0.062-0.07,0.125-0.142,0.181-0.219
		c0.059-0.08,0.105-0.165,0.156-0.251c0.046-0.081,0.093-0.159,0.132-0.244c0.041-0.089,0.073-0.183,0.104-0.274
		c0.032-0.092,0.063-0.184,0.086-0.277c0.021-0.089,0.035-0.182,0.049-0.271c0.016-0.107,0.027-0.213,0.031-0.322
		c0.002-0.036,0.012-0.068,0.012-0.105v-4.092c0-0.037-0.01-0.068-0.012-0.104c-0.004-0.108-0.017-0.216-0.031-0.324
		c-0.01-0.058-0.008-0.118-0.018-0.175c-0.008-0.033-0.021-0.062-0.029-0.096c-0.023-0.097-0.057-0.188-0.088-0.28
		c-0.013-0.036-0.021-0.073-0.033-0.108c-0.01-0.024-0.015-0.054-0.024-0.078c-0.013-0.029-0.032-0.056-0.046-0.086
		c-0.04-0.086-0.087-0.166-0.135-0.248c-0.049-0.084-0.098-0.166-0.152-0.246c-0.059-0.078-0.122-0.15-0.188-0.226
		c-0.062-0.069-0.121-0.142-0.189-0.205c-0.031-0.028-0.061-0.062-0.092-0.089v-4.797c1.656-0.001,2.998-1.344,2.998-3
		s-1.342-2.999-2.998-3v-15.486h7.574v18.486c0,1.657,1.343,3,3,3c1.656,0,3-1.343,3-3v-18.486h4.914v18.486c0,1.657,1.342,3,3,3
		c1.656,0,3-1.343,3-3v-18.486h4.913v41.477c0,1.657,1.343,3,3,3c0.025,0,0.048-0.007,0.073-0.008
		c0.021,0.001,0.042,0.007,0.062,0.007h0.137h1.9c0.004,0,0.006,0.001,0.01,0.001c0.059,0,0.113-0.014,0.17-0.018
		c0.058,0.004,0.111,0.018,0.171,0.018c1.657,0,3-1.343,3-3v-47c0-1.657-1.343-3-3-3h-42.287c-1.657,0-3,1.343-3,3v2.047
		c0,1.346,0.892,2.471,2.11,2.852v56.904h-12.51c-0.003,0-0.007-0.001-0.01-0.001h-0.409h-0.409c-0.003,0-0.007,0.001-0.01,0.001
		h-15.51v-56.756h17.332c1.656,0,3-1.343,3-3v-2.047c0-1.657-1.344-3-3-3h-42.766c-1.657,0-3,1.343-3,3v2.047c0,1.657,1.343,3,3,3
		h17.387v56.756h-15.51c-0.004,0-0.008-0.001-0.011-0.001h-0.409h-0.408c-0.004,0-0.008,0.001-0.011,0.001h-12.439v-56.943
		c1.155-0.416,1.987-1.513,1.987-2.812v-2.047c0-1.657-1.344-3-3-3h-6.08c-1.657,0-3,1.343-3,3v2.047
		c0,1.321,0.859,2.433,2.047,2.831v56.925h-12.441c-0.003,0-0.007-0.001-0.01-0.001h-0.408h-0.408c-0.003,0-0.007,0.001-0.01,0.001
		h-15.512v-56.756h17.328c1.656,0,3-1.343,3-3v-2.047c0-1.657-1.344-3-3-3h-24.42c-1.657,0-3,1.343-3,3
		c0,0.06,0.014,0.112,0.018,0.171c-0.004,0.059-0.018,0.111-0.018,0.171c0,0.233,0.033,0.461,0.084,0.681
		c-0.053,0.221-0.086,0.446-0.086,0.684c0,0.059,0.015,0.113,0.019,0.171c-0.004,0.058-0.019,0.112-0.019,0.171
		c0,1.322,0.86,2.432,2.048,2.831v56.925h-15.511c-0.004,0-0.008-0.001-0.011-0.001h-0.409h-0.408c-0.004,0-0.008,0.001-0.011,0.001
		h-16.047c-0.003,0-0.007-0.001-0.01-0.001h-0.408h-0.407c-0.004,0-0.008,0.001-0.011,0.001h-16.045
		c-0.003,0-0.007-0.001-0.01-0.001h-0.408h-0.41c-0.003,0-0.007,0.001-0.01,0.001h-15.509v-34.805c0-1.656-1.344-3-3-3
		c-0.06,0-0.113,0.015-0.17,0.019c-0.06-0.004-0.112-0.019-0.172-0.019c-0.234,0-0.463,0.035-0.683,0.086
		c-0.22-0.051-0.447-0.086-0.683-0.086c-0.06,0-0.113,0.015-0.172,0.019c-0.057-0.004-0.11-0.019-0.17-0.019c-1.656,0-3,1.344-3,3
		v34.805h-15.511c-0.003,0-0.007-0.001-0.01-0.001h-0.409h-0.409c-0.003,0-0.007,0.001-0.01,0.001h-16.045
		c-0.003,0-0.007-0.001-0.011-0.001h-0.407h-0.41c-0.003,0-0.007,0.001-0.011,0.001h-16.043c-0.004,0-0.008-0.001-0.01-0.001h-0.41
		h-0.407c-0.003,0-0.007,0.001-0.011,0.001h-14.146v-30.562c0-1.656-1.343-3-3-3c-0.059,0-0.113,0.015-0.17,0.019
		c-0.059-0.004-0.112-0.019-0.17-0.019c-0.235,0-0.463,0.033-0.682,0.086c-0.221-0.053-0.447-0.086-0.683-0.086
		c-0.06,0-0.113,0.015-0.17,0.019c-0.058-0.004-0.112-0.019-0.17-0.019c-1.657,0-3,1.344-3,3v13.926h-43.209v-64.197h28.397
		c1.657,0,3-1.343,3-3v-2.046c0-1.657-1.343-3-3-3h-21.193c-0.139-1.528-1.408-2.729-2.973-2.729h-4.232v-18.672h103.793
		c1.658,0,3-1.344,3-3c0-0.004,0-0.008,0-0.01v-3.705c0-0.004,0-0.008,0-0.01c0-0.004,0-0.008,0-0.01v-1.004c0-0.002,0-0.006,0-0.01
		c0-0.408-0.082-0.799-0.23-1.153v-39.17h2.188v40.324c0,1.657,1.343,3,3,3c0.441,0,0.858-0.103,1.236-0.272v2.021
		c0,0.011,0.004,0.021,0.004,0.032c0.002,0.125,0.021,0.247,0.037,0.37c0.01,0.075,0.012,0.151,0.027,0.226
		c0.021,0.097,0.057,0.188,0.087,0.28c0.029,0.093,0.052,0.188,0.09,0.276c0.034,0.078,0.082,0.149,0.122,0.226
		c0.051,0.095,0.094,0.19,0.153,0.276c0.058,0.086,0.13,0.16,0.196,0.238c0.058,0.066,0.106,0.141,0.17,0.203
		c0.066,0.066,0.146,0.121,0.221,0.182c0.077,0.063,0.15,0.133,0.232,0.188c0.062,0.04,0.133,0.07,0.197,0.105
		c0.109,0.062,0.217,0.125,0.333,0.172c0.011,0.004,0.02,0.012,0.028,0.016l75.202,29.65c0.067,0.027,0.138,0.037,0.207,0.06
		c0.11,0.034,0.219,0.071,0.334,0.095c0.116,0.021,0.23,0.026,0.348,0.035c0.071,0.004,0.14,0.021,0.212,0.021h7.67
		c1.657,0,3-1.343,3-3v-2.046c0-1.657-1.343-3-3-3h-0.27c-0.036-1.625-1.36-2.934-2.993-2.934c-0.001,0-0.001,0-0.001,0h-10.885
		l-59.816-23.594v-13.109c0-0.494-0.131-0.953-0.344-1.363c0.213-0.412,0.344-0.871,0.344-1.364v-41.405h14.187
		c0.003,0,0.007,0,0.01,0h0.41h0.408c0.003,0,0.007,0,0.01,0h16.045c0.003,0,0.007,0,0.011,0h0.407h0.408c0.003,0,0.007,0,0.01,0
		h16.048c0.002,0,0.006,0,0.01,0h0.408h0.41c0.002,0,0.006,0,0.01,0h16.795c0.003,0,0.007,0,0.01,0h0.409h0.409
		c0.003,0,0.007,0,0.01,0h3.802c0.003,0,0.007,0,0.011,0h0.407h0.409c0.003,0,0.007,0,0.01,0h16.797c0.004,0,0.008,0,0.011,0h0.407
		h0.408c0.004,0,0.008,0,0.01,0h16.045c0.004,0,0.008,0,0.011,0h0.409h0.408c0.004,0,0.008,0,0.011,0h16.045c0.003,0,0.007,0,0.01,0
		h0.409h0.409c0.003,0,0.007,0,0.01,0h15.511v81.322c-0.803,0.524-1.334,1.42-1.357,2.443h-50.225c-1.657,0-3,1.343-3,3v2.046
		c0,1.657,1.343,3,3,3h60.746c1.656,0,3-1.343,3-3c0-0.06-0.015-0.112-0.018-0.17c0.003-0.058,0.018-0.112,0.018-0.171
		c0-0.234-0.035-0.462-0.086-0.684c0.051-0.22,0.086-0.445,0.086-0.682c0-0.059-0.015-0.113-0.018-0.17
		c0.003-0.059,0.018-0.111,0.018-0.171c0-1.574-1.217-2.851-2.76-2.976c-0.015-1.035-0.551-1.939-1.357-2.467v-31.611h54.965
		c1.656,0,3-1.343,3-3v-2.046c0-1.657-1.344-3-3-3h-54.965v-41.667h15.51c0.003,0,0.007,0.001,0.01,0.001h0.409h0.409
		c0.003,0,0.007-0.001,0.01-0.001h16.045c0.003,0,0.007,0.001,0.01,0.001h0.408h0.41c0.003,0,0.007-0.001,0.01-0.001h16.045
		c0.004,0,0.008,0.001,0.01,0.001h0.408h0.41c0.004,0,0.008-0.001,0.01-0.001h14.281v3.589c0,1.657,1.344,3,3,3h6.356
		c0.105,0,0.207-0.021,0.312-0.03c0.102,0.011,0.2,0.029,0.303,0.029h0.408h0.4c0.003,0,0.007,0.001,0.01,0.001h4.381h2.168h48.68
		c0.004,0,0.008-0.001,0.011-0.001h0.397h0.41c0.004,0,0.008-0.001,0.01-0.001h6.528c0.003,0,0.007,0.001,0.011,0.001h0.408h0.41
		c0.003,0,0.007-0.001,0.01-0.001h2.361c0.88,0,1.663-0.385,2.212-0.987v46.857h-1.598c-1.657,0-3,1.343-3,3v0.021v0.021
		l0.005,0.166l0.001,0.019c0.007,0.125,0.032,0.328,0.06,0.451l0.004,0.02l0.01,0.035h-10.021v-0.913c0-0.79-0.32-1.562-0.879-2.121
		s-1.331-0.879-2.121-0.879h-19.338h-19.338c-0.79,0-1.562,0.319-2.121,0.879s-0.879,1.331-0.879,2.121v1.11
		c-1.141,0.426-1.954,1.515-1.954,2.803v2.045c0,1.396,0.958,2.561,2.25,2.895c0.479,1.016,1.506,1.723,2.704,1.723h19.338h19.338
		c0.79,0,1.562-0.32,2.121-0.879c0.216-0.215,0.383-0.47,0.521-0.736h13.463l72.136,27.184c0.074,0.027,0.149,0.037,0.228,0.061
		c0.095,0.027,0.188,0.059,0.287,0.076c0.121,0.021,0.242,0.029,0.364,0.036c0.06,0.004,0.117,0.019,0.179,0.019h10.683
		c1.657,0,3-1.342,3-3c0-0.049-0.013-0.097-0.015-0.146c0.428-0.519,0.695-1.175,0.695-1.899c0-1.658-1.343-3-3-3h-3.957
		c-0.14-1.528-1.408-2.729-2.973-2.729h-10.756l-59.096-22.269v-66.371c0-1.656-1.344-3-3-3h-2.304v-32.484h0.83
		c1.657,0,3-1.343,3-3v-0.021v-0.021c0-0.125-0.004-0.188-0.017-0.313l-0.002-0.02l-0.002-0.018l-0.002-0.018
		c-0.021-0.177-0.067-0.402-0.121-0.572l-0.006-0.019c-0.037-0.119-0.068-0.201-0.119-0.315l-0.008-0.018
		c-0.03-0.066-0.07-0.135-0.107-0.203l8.556-1.423l11.794-1.962l12.169-1.786l12.167-1.784l12.199-1.548l12.199-1.55l12.228-1.312
		l12.226-1.312l12.252-1.074l12.25-1.075l12.269-0.838l12.271-0.838l5.91-0.288v71.838c0,1.657,1.342,3,3,3h2.045
		c1.657,0,3-1.343,3-3v-72.229l10.612-0.519l12.289-0.36l12.293-0.359l12.297-0.123l12.296-0.123l12.297,0.117l12.295,0.115
		l12.295,0.354l12.293,0.354l12.281,0.593l12.284,0.593l12.27,0.831l12.27,0.831l12.251,1.067l12.251,1.067l12.229,1.308
		l12.229,1.305l12.199,1.543l12.2,1.543l12.167,1.779l12.169,1.777l12.132,2.016l8.885,1.475c-0.04,0.07-0.057,0.105-0.1,0.202
		l-0.009,0.019c-0.051,0.113-0.082,0.195-0.119,0.314l-0.006,0.02l-0.067,0.252l-0.004,0.019c-0.048,0.212-0.071,0.435-0.071,0.649
		v0.02v0.021v0.021c0,0.79,0.32,1.562,0.879,2.121s1.331,0.879,2.121,0.879h0.829v32.487h-2.304c-1.657,0-3,1.342-3,3v16.98h-44.338
		c-1.657,0-3,1.343-3,3v2.046c0,1.657,1.343,3,3,3h44.338v38.608l-27.754,11.645c-1.526,0.643-2.246,2.398-1.604,3.928
		c0.019,0.045,0.047,0.082,0.067,0.125c0.021,0.062,0.031,0.129,0.059,0.19c0.086,0.205,0.193,0.394,0.316,0.565
		c0.037,0.236,0.094,0.473,0.189,0.701c0.029,0.07,0.072,0.131,0.105,0.196c0.016,0.038,0.021,0.077,0.035,0.114
		c0.643,1.527,2.399,2.246,3.928,1.605l29.719-12.468h2.291l11.984,5.015c0.005,0.002,0.009,0.002,0.014,0.004l15.088,6.311
		c0.002,0.001,0.003,0.002,0.005,0.003s0.003,0.001,0.005,0.002l7.542,3.153c0.001,0,0.002,0.002,0.003,0.002l0.625,0.261
		c0.002,0.001,0.002,0.002,0.004,0.003s0.004,0.001,0.006,0.002l13.834,5.786c0.002,0.001,0.004,0.003,0.008,0.004
		c0.003,0.001,0.005,0.001,0.008,0.003l0.607,0.254c0.006,0.002,0.009,0.005,0.014,0.007s0.009,0.002,0.014,0.004l19.896,8.321
		c0.188,0.08,0.384,0.143,0.588,0.183c0.185,0.037,0.369,0.054,0.554,0.056c0.013,0,0.022,0.004,0.036,0.004h0.002
		c0.006,0,0.012,0,0.018,0h27.827h16.372h8.185c1.656,0,3-1.342,3-3v-2.045c0-1.658-1.344-3-3-3h-8.185h-16.372h-20.775
		c-0.037-1.625-1.358-2.934-2.993-2.934h-10.075l-11.983-5.012c-0.002-0.002-0.003-0.002-0.005-0.004c-0.002,0-0.003,0-0.005-0.002
		l-0.613-0.256c-0.004-0.002-0.008-0.004-0.011-0.006c-0.003,0-0.007-0.002-0.011-0.002l-13.829-5.785
		c-0.001,0-0.001-0.002-0.002-0.002s-0.001,0-0.002,0l-0.625-0.262c-0.001-0.001-0.002-0.001-0.003-0.002l-7.549-3.157
		c-0.002-0.001-0.003-0.002-0.005-0.003s-0.003-0.001-0.005-0.002l-14.461-6.047c-0.002-0.001-0.002-0.002-0.004-0.003
		s-0.004-0.001-0.006-0.002l-0.623-0.26c0-0.001-0.002-0.002-0.003-0.002s-0.002-0.001-0.004-0.001l-10.847-4.537v-48.9h0.141
		c0.003,0,0.007,0,0.01,0h6.549c0.002,0,0.006,0,0.01,0h0.398h0.4c0.003,0,0.007,0,0.01,0h47.86c0.004,0,0.006,0,0.01,0h0.399h0.399
		c0.003,0,0.007,0,0.011,0h6.548c0.004,0,0.006,0,0.01,0h0.399h0.408c0.103,0,0.202-0.021,0.303-0.03
		c0.104,0.011,0.205,0.03,0.312,0.03h6.355c1.656,0,3-1.342,3-3v-3.588h14.281c0.004,0,0.006,0,0.01,0h0.409h0.41
		c0.003,0,0.007,0,0.01,0h16.044c0.004,0,0.006,0,0.01,0h0.409h0.409c0.004,0,0.006,0,0.01,0h16.045c0.004,0,0.006,0,0.01,0h0.409
		h0.409c0.004,0,0.006,0,0.01,0h15.514v81.321c-0.815,0.53-1.356,1.444-1.364,2.487c-1.449,0.213-2.563,1.449-2.563,2.957v2.045
		c0,1.658,1.344,3,3,3h20.637h16.371h9.551h16.371c0.001,0,0.001,0,0.001,0h21.428c1.657,0,3-1.342,3-3v-2.045c0-1.658-1.343-3-3-3
		h-0.358c-0.036-1.625-1.36-2.934-2.993-2.934h-4.774c-1.634,0-2.956,1.309-2.992,2.934h-10.31h-16.371h-9.55h-16.371h-10.309
		c-0.022-1.023-0.555-1.918-1.354-2.442v-81.324h15.508c0.004,0,0.006,0.001,0.01,0.001h0.409h0.409c0.004,0,0.006-0.001,0.01-0.001
		h16.045c0.004,0,0.006,0.001,0.01,0.001h0.409h0.409c0.004,0,0.006-0.001,0.01-0.001h16.044c0.003,0,0.007,0.001,0.01,0.001h0.41
		h0.408c0.003,0,0.007-0.001,0.01-0.001h16.796c0.004,0,0.006,0.001,0.01,0.001h0.409h0.409c0.004,0,0.006-0.001,0.01-0.001h3.8
		c0.003,0,0.008,0.001,0.01,0.001h0.41h0.409c0.004,0,0.006-0.001,0.01-0.001h16.794c0.003,0,0.008,0.001,0.01,0.001h0.41h0.409
		c0.004,0,0.006-0.001,0.01-0.001h16.044c0.003,0,0.008,0.001,0.01,0.001h0.41h0.409c0.004,0,0.006-0.001,0.01-0.001h16.044
		c0.003,0,0.008,0.001,0.01,0.001h0.41h0.408c0.003,0,0.007-0.001,0.01-0.001h14.282v1.005c0,0.991,0.486,1.863,1.228,2.409v42.317
		V8386h-16.78c-1.657,0-3,1.343-3,3v18.351h-3.373h-16.371h-6.373c-1.657,0-3,1.344-3,3v2.047c0,1.656,1.343,3,3,3h6.373h16.371
		h8.42h1.978c1.656,0,3-1.344,3-3c0-0.06-0.014-0.113-0.018-0.17c0.004-0.059,0.018-0.112,0.018-0.172
		c0-0.234-0.033-0.461-0.085-0.683c0.052-0.22,0.085-0.446,0.085-0.683c0-0.059-0.014-0.112-0.018-0.17
		c0.004-0.058,0.018-0.111,0.018-0.17c0-1.297-0.826-2.391-1.978-2.811v-13.494h16.78c1.657,0,3-1.343,3-3v-59.4h60.055
		c0.004,0,0.006,0,0.01,0c1.097,0,2.046-0.595,2.569-1.474h2.274v2.298H2369.42z"/>
	<path d="M1967.012,8398.331c-0.015-0.041-0.021-0.084-0.037-0.123c-0.058-0.139-0.136-0.263-0.21-0.387
		c-0.016-0.189-0.051-0.377-0.104-0.564c-0.037-0.231-0.093-0.463-0.188-0.688c-0.643-1.526-2.399-2.246-3.928-1.604l-22.533,9.453
		h-3.85v-58.33c0-1.658-1.343-3-3-3h-2.045c-1.658,0-3,1.342-3,3v58.33h-23.812c-1.447,0-2.654,1.024-2.937,2.389h-12.136
		c-0.282-1.363-1.489-2.389-2.937-2.389h-33.735h-16.371h-5.187v-4.856c0-1.657-1.342-3-3-3h-1.568c-1.657,0-3,1.343-3,3v1.584
		v0.002v0.34c0,1.136,0.639,2.112,1.568,2.622v3.311v1.363v2.046v1.364c0,1.656,1.344,3,3,3h8.187h16.371h33.735
		c1.445,0,2.652-1.024,2.937-2.388h12.136c0.282,1.362,1.488,2.388,2.937,2.388h30.202c0.201,0,0.404-0.02,0.607-0.061
		c0.201-0.041,0.396-0.102,0.584-0.182l29.807-12.504c1.527-0.642,2.246-2.398,1.605-3.926
		C1967.088,8398.452,1967.047,8398.395,1967.012,8398.331z"/>
	<path d="M1814.799,8396.559h-9.059c-0.002,0-0.005-0.001-0.007-0.001s-0.005,0.001-0.007,0.001l-58.24-0.002c0,0,0,0-0.001,0
		c-0.056,0-0.106,0.015-0.161,0.017c-0.56,0.03-1.08,0.203-1.517,0.496c-0.021,0.016-0.038,0.035-0.06,0.049
		c-0.135,0.098-0.268,0.201-0.385,0.317c-0.117,0.118-0.221,0.25-0.317,0.386c-0.015,0.021-0.033,0.037-0.048,0.059
		c-0.288,0.428-0.457,0.938-0.492,1.482c-0.004,0.065-0.021,0.129-0.021,0.194c0,0.001,0,0.001,0,0.001l0.003,7.587h-19.814v-58.331
		c0-1.657-1.344-3-3-3h-2.046c-1.657,0-3,1.343-3,3v58.331h-0.136c-0.141-1.528-1.408-2.729-2.974-2.729h-4.774
		c-1.564,0-2.834,1.201-2.974,2.729h-6.606h-16.371h-19.369c-1.657,0-3,1.343-3,3c0,0.717,0.262,1.367,0.682,1.883v0.242
		c0,1.657,1.344,3,3,3c0.229,0,0.449-0.03,0.663-0.079h18.024h16.371h9.58h4.774h40.108c1.656,0,3-1.343,3-3v-0.331
		c0-0.003,0-0.007,0-0.01s0-0.007,0-0.01v-0.024l11.561-1.766c0.07,0.005,0.141,0.016,0.212,0.016
		c0.376-0.002,0.735-0.08,1.071-0.211l0.658-0.102c0.396,0.193,0.837,0.312,1.308,0.312c0.491,0,0.947-0.129,1.356-0.338
		c0.062,0.022,0.121,0.053,0.184,0.071l0.408,0.128c0.294,0.093,0.59,0.139,0.896,0.139h0.355v1.785v0.34c0,1.658,1.343,3,3,3
		h11.729c1.657,0,3-1.342,3-3v-0.342v-0.729l6.414,0.979v0.092v0.002c0,1.656,1.343,3,3,3c0.003,0,0.007-0.002,0.011-0.002h9.846
		c1.656,0,3-1.342,3-3v-1.363v-2.046v-1.364c0-1.656-1.344-3-3-3h-2.905v-1.856h2.608c0.446,1.095,1.52,1.865,2.773,1.865
		c1.649,0,2.987-1.332,2.998-2.979c0.421-0.518,0.684-1.168,0.684-1.885C1817.799,8397.901,1816.455,8396.559,1814.799,8396.559z
		 M1755.199,8405.964l-2.802,0.427v-1.374l2.749,0.42c0.011,0.157,0.029,0.312,0.064,0.464
		C1755.207,8405.921,1755.203,8405.941,1755.199,8405.964z M1800.824,8406.341l-1.318-0.201c0.002-0.08-0.01-0.158-0.016-0.238
		c0.124-0.209,0.221-0.435,0.291-0.672l1.043-0.16V8406.341z"/>
	<path d="M1566.179,8404.417h-4.775c-1.656,0-3,1.342-3,3v4.979c0,1.657,1.344,3,3,3h4.775c1.656,0,3-1.343,3-3v-4.979
		C1569.179,8405.76,1567.838,8404.417,1566.179,8404.417z"/>
	<path d="M1494.146,8379.978v-11.729c0-1.658-1.343-3-3-3h-3.29c-1.657,0-3,1.342-3,3v2.045c0,1,0.493,1.877,1.243,2.422v32.188
		c-0.803,0.524-1.334,1.419-1.357,2.442h-50.734c-1.656,0-3,1.344-3,3v2.047c0,1.656,1.344,3,3,3h58.502c1.658,0,3-1.344,3-3v-5.185
		v-20.655c0.352-0.492,0.562-1.09,0.562-1.738c0-0.059-0.014-0.113-0.017-0.17c0.003-0.059,0.017-0.111,0.017-0.171
		c0-0.235-0.034-0.462-0.085-0.683c0.052-0.221,0.085-0.446,0.085-0.683c0-0.06-0.014-0.112-0.017-0.17
		c0.003-0.058,0.017-0.112,0.017-0.171C1496.072,8381.493,1495.271,8380.411,1494.146,8379.978z"/>
	<path d="M1266.726,8415.19h4.773c1.656,0,3-1.343,3-3v-4.773c0-1.658-1.344-3-3-3h-4.773c-1.657,0-3,1.342-3,3v4.773
		C1263.726,8413.849,1265.069,8415.19,1266.726,8415.19z"/>
	<path d="M1507.242,8552.146v4.092v4.095c0,0.197,0.021,0.395,0.061,0.588c0.234,1.186,1.168,2.117,2.354,2.353
		c0.192,0.039,0.389,0.06,0.588,0.06h16.715h16.715c0.197,0,0.395-0.021,0.587-0.06c1.186-0.235,2.118-1.167,2.354-2.353
		c0.039-0.193,0.061-0.391,0.061-0.588v-4.095v-4.092c0-0.198-0.021-0.396-0.061-0.588c-0.235-1.187-1.168-2.117-2.354-2.353
		c-0.192-0.039-0.39-0.061-0.587-0.061h-16.715h-16.715C1508.586,8549.146,1507.242,8550.489,1507.242,8552.146z M1513.242,8556.239
		v-1.092h13.715h13.715v1.092v1.094h-13.715h-13.715V8556.239z"/>
	<path d="M227.166,8083.686c-0.421,0-0.82,0.088-1.185,0.245c-0.494-0.355-1.094-0.57-1.749-0.57c-0.841,0-1.601,0.349-2.145,0.905
		h-26.226c-1.657,0-3,1.343-3,3c0,0.535,0.152,1.03,0.398,1.467c-0.246,0.435-0.398,0.931-0.398,1.466c0,1.657,1.343,3,3,3h25.37
		v9.449c0,1.657,1.343,3,3,3c0.535,0,1.031-0.15,1.466-0.396c0.437,0.246,0.932,0.397,1.468,0.397c1.657,0,3-1.343,3-3v-15.383
		v-0.58C230.166,8085.028,228.823,8083.686,227.166,8083.686z"/>
	<path d="M1928.121,8328.077c0,1.658,1.342,3,3,3h2.045c1.657,0,3-1.342,3-3v-50.451c0.436-0.521,0.707-1.184,0.707-1.914v-0.021
		v-0.02l-0.004-0.158v-0.019c-0.008-0.125-0.015-0.188-0.033-0.312l-0.004-0.019c-0.026-0.175-0.062-0.312-0.116-0.479l-0.007-0.019
		c-0.038-0.119-0.053-0.155-0.104-0.271l-0.008-0.019c-0.051-0.114-0.059-0.129-0.119-0.237l-0.01-0.019
		c-0.037-0.065-0.068-0.117-0.102-0.168c0.021-0.032,0.045-0.062,0.063-0.095l0.01-0.018c0.063-0.107,0.131-0.242,0.179-0.357
		l0.008-0.019c0.05-0.115,0.06-0.142,0.097-0.261l0.006-0.02c0.038-0.119,0.078-0.287,0.099-0.41l0.004-0.018l0.021-0.162
		l0.002-0.019c0.014-0.124,0.02-0.206,0.02-0.331v-0.021v-0.021c0-0.79-0.32-1.562-0.879-2.121c-0.56-0.56-1.332-0.879-2.121-0.879
		h-1.732h-1.733c-0.79,0-1.562,0.319-2.12,0.879c-0.56,0.56-0.88,1.331-0.88,2.121v0.021v0.021l0.005,0.166l0.002,0.018
		c0.01,0.178,0.027,0.312,0.065,0.484l0.004,0.018l0.027,0.113l0.005,0.02c0.031,0.121,0.088,0.285,0.137,0.399l0.008,0.019
		c0.068,0.164,0.149,0.317,0.246,0.467l0.006,0.008l-0.035,0.054l-0.012,0.019c-0.064,0.105-0.156,0.285-0.205,0.399l-0.008,0.019
		c-0.049,0.115-0.104,0.279-0.137,0.4l-0.005,0.02l-0.027,0.112l-0.004,0.019c-0.038,0.172-0.058,0.307-0.065,0.483l-0.002,0.019
		l-0.005,0.166v0.021v0.021c0,0.701,0.265,1.381,0.714,1.918v50.453H1928.121z"/>
	<path d="M640.097,8410.649h-27.871h-15.402c-1.656,0-3,1.343-3,3s1.344,3,3,3h15.402h27.871c1.656,0,3-1.343,3-3
		S641.755,8410.649,640.097,8410.649z"/>
	<path d="M1327.301,8431.224h-87.854c-1.656,0-3,1.343-3,3v2.047c0,1.657,1.344,3,3,3h25.645v9.538c0,1.657,1.343,3,3,3
		c0.003,0,0.006-0.001,0.01-0.001h0.321c0.003,0,0.007,0.001,0.01,0.001s0.007-0.001,0.01-0.001h1.347
		c0.002,0,0.006,0.001,0.01,0.001c0.003,0,0.007-0.001,0.01-0.001h0.321c0.004,0,0.007,0.001,0.01,0.001c1.656,0,3-1.343,3-3v-9.538
		h54.162c1.655,0,3-1.343,3-3c0-0.059-0.015-0.113-0.019-0.171c0.004-0.058,0.019-0.112,0.019-0.171
		c0-0.234-0.033-0.462-0.085-0.682c0.052-0.221,0.085-0.446,0.085-0.683c0-0.06-0.015-0.112-0.019-0.171
		c0.004-0.059,0.019-0.111,0.019-0.171C1330.301,8432.565,1328.957,8431.224,1327.301,8431.224z"/>
	<path d="M1227.033,8431.224h-26.201v-23.797c0-0.003,0-0.007,0-0.01c0-1.657-1.343-3-3-3h-7.441c-1.657,0-3,1.343-3,3v2.729v2.047
		c0,1.656,1.343,3,3,3h2.396v37.857c0,1.657,1.343,3,3,3c0.06,0,0.113-0.014,0.171-0.018c0.058,0.004,0.111,0.018,0.17,0.018
		c0.234,0,0.461-0.033,0.682-0.085c0.22,0.052,0.447,0.085,0.682,0.085c0.059,0,0.113-0.014,0.17-0.018
		c0.059,0.004,0.112,0.018,0.17,0.018c1.657,0,3-1.343,3-3v-13.779h26.203c1.656,0,3-1.342,3-3v-2.047
		C1230.033,8432.565,1228.69,8431.224,1227.033,8431.224z"/>
	<path d="M747.232,8438.521h-14.721c-1.657,0-3,1.343-3,3s1.343,3,3,3h14.721c1.657,0,3-1.343,3-3
		S748.889,8438.521,747.232,8438.521z"/>
	<path d="M581.979,8393.759c0-1.657-1.343-3-3-3c-0.514,0-0.99,0.143-1.414,0.369c-1.583,0.082-2.845,1.38-2.845,2.984v10.914
		c0,1.006,0.499,1.891,1.259,2.435v3.188h-40.766c-1.657,0-3,1.344-3,3c0,1.658,1.343,3,3,3h44.261c1.657,0,3-1.342,3-3v-5.07
		c0-0.607-0.184-1.173-0.495-1.646V8393.759z"/>
</g>
</svg>
